<svg width="300" height="67" viewBox="0 0 300 67" fill="none" xmlns="http://www.w3.org/2000/svg">
<path d="M170.468 45.2801C170.468 43.4803 171.829 41.0309 173.762 41.0309C173.978 41.0258 174.191 41.0664 174.39 41.1502C174.588 41.2339 174.766 41.3587 174.911 41.5163C175.057 41.6739 175.167 41.8607 175.234 42.064C175.301 42.2674 175.324 42.4826 175.301 42.6954C175.301 44.2787 174.048 47.1206 171.952 47.1206C171.733 47.097 171.52 47.0306 171.327 46.9253C171.134 46.8199 170.963 46.6777 170.825 46.5067C170.687 46.3357 170.585 46.1393 170.524 45.9288C170.462 45.7183 170.443 45.4979 170.468 45.2801V45.2801ZM174.729 42.4924C174.743 42.3906 174.734 42.287 174.704 42.1888C174.674 42.0905 174.623 41.9998 174.554 41.9228C174.486 41.8458 174.402 41.7844 174.307 41.7425C174.213 41.7007 174.111 41.6796 174.007 41.6805C173.395 41.6805 172.646 42.2353 171.911 43.3856C171.435 44.0762 171.148 44.8786 171.08 45.7132C171.073 45.8042 171.084 45.8959 171.113 45.9825C171.143 46.0691 171.189 46.149 171.25 46.2173C171.311 46.2856 171.386 46.3409 171.469 46.3798C171.552 46.4188 171.642 46.4406 171.734 46.4439C173.245 46.4439 174.729 43.4262 174.729 42.4924" fill="#141E3C"/>
<path d="M176.716 41.9511C176.635 41.9511 176.608 41.9511 176.635 41.8158L176.703 41.5722C176.703 41.464 176.703 41.4234 176.866 41.4234H178.119C178.466 40.239 179.039 39.1318 179.807 38.162C180.077 37.8634 180.407 37.623 180.774 37.4554C181.142 37.2879 181.54 37.1968 181.944 37.1877C182.774 37.1877 183.237 37.6884 183.237 38.0267C183.247 38.1081 183.239 38.1906 183.215 38.269C183.191 38.3474 183.151 38.42 183.097 38.4823C183.043 38.5445 182.977 38.5951 182.903 38.6308C182.829 38.6665 182.748 38.6866 182.666 38.6898C182.585 38.6994 182.503 38.6918 182.426 38.6676C182.348 38.6434 182.277 38.603 182.216 38.5493C182.156 38.4955 182.108 38.4295 182.075 38.3558C182.042 38.282 182.025 38.2021 182.026 38.1214C181.999 37.991 181.924 37.8754 181.816 37.7976C181.707 37.7198 181.573 37.6856 181.44 37.7019C180.079 37.7019 179.575 39.8265 179.099 41.4234H180.46C180.542 41.4234 180.569 41.4234 180.542 41.5993L180.474 41.8564C180.474 41.9376 180.474 41.9511 180.31 41.9511H178.949C178.568 43.1149 177.914 45.5914 177.193 47.4318C176.308 49.6647 175.287 51.248 173.749 51.248C173.499 51.271 173.249 51.1963 173.054 51.0397C172.858 50.8831 172.731 50.6569 172.7 50.409C172.699 50.3268 172.714 50.245 172.744 50.1686C172.775 50.0923 172.821 50.0229 172.88 49.9647C172.938 49.9066 173.008 49.8608 173.085 49.8301C173.162 49.7995 173.244 49.7847 173.327 49.7865C173.498 49.8007 173.659 49.873 173.783 49.9913C173.907 50.1096 173.986 50.2666 174.007 50.4361C174.013 50.4987 174.041 50.5572 174.086 50.6016C174.131 50.6461 174.189 50.6737 174.252 50.6797C174.947 50.6797 175.723 49.4753 176.499 46.8229L177.955 41.9511H176.716Z" fill="#141E3C"/>
<path d="M186.777 40.7332C186.777 40.2189 186.777 38.4732 186.777 38.2296C186.777 37.4041 186.505 37.3771 185.96 37.3771H185.497C185.415 37.3771 185.388 37.3771 185.388 37.2553V36.9305C185.388 36.8493 185.388 36.7952 185.497 36.7952C185.606 36.7952 186.396 36.7952 187.607 36.7952C188.056 36.7952 188.969 36.7952 189.704 36.7952C190.567 36.7366 191.432 36.8707 192.236 37.1876C192.595 37.3652 192.892 37.6459 193.089 37.9934C193.285 38.3409 193.372 38.7391 193.338 39.1363C193.338 40.2866 192.726 40.9632 191.378 41.4639V41.5451C193.025 41.9646 193.965 42.8307 193.965 44.3464C193.964 44.7711 193.862 45.1897 193.668 45.5682C193.474 45.9467 193.193 46.2745 192.848 46.5251C191.857 46.9451 190.777 47.1171 189.704 47.0258H187.607C186.477 47.0258 185.878 47.0258 185.565 47.0258C185.551 47.026 185.538 47.0232 185.525 47.0176C185.513 47.012 185.502 47.0038 185.492 46.9935C185.483 46.9832 185.477 46.9711 185.473 46.958C185.469 46.9449 185.468 46.9311 185.47 46.9176V46.5522C185.467 46.5392 185.468 46.5259 185.472 46.5132C185.476 46.5006 185.483 46.4892 185.492 46.4799C185.502 46.4705 185.513 46.4636 185.526 46.4597C185.539 46.4558 185.552 46.455 185.565 46.4575H186.191C186.627 46.4575 186.722 46.2815 186.763 45.835C186.804 45.3884 186.763 43.6021 186.763 42.4247L186.777 40.7332ZM188.547 41.3421H189.227C189.768 41.3697 190.303 41.2225 190.752 40.9226C191.002 40.719 191.2 40.4597 191.33 40.1658C191.46 39.8719 191.518 39.5516 191.501 39.231C191.517 38.9559 191.469 38.6808 191.36 38.4273C191.251 38.1737 191.085 37.9486 190.874 37.7695C190.385 37.4494 189.813 37.2756 189.227 37.2688C189.082 37.2549 188.936 37.2549 188.792 37.2688C188.746 37.29 188.705 37.3221 188.675 37.3621C188.644 37.4022 188.623 37.4491 188.615 37.4989C188.615 37.783 188.615 39.0145 188.615 40.2054L188.547 41.3421ZM189.785 46.5657C190.088 46.5963 190.394 46.5575 190.679 46.4522C190.964 46.3468 191.221 46.1779 191.43 45.9582C191.639 45.7386 191.795 45.4742 191.885 45.1853C191.975 44.8965 191.997 44.5909 191.95 44.2922C191.989 43.8248 191.879 43.3569 191.634 42.9557C191.39 42.5546 191.024 42.2408 190.589 42.0594C190.062 41.8673 189.502 41.78 188.941 41.8022H188.574V44.6576C188.574 46.0109 188.887 46.5657 189.813 46.5657" fill="#141E3C"/>
<path d="M195.653 38.0943C195.653 37.6072 195.53 37.3771 195.163 37.3771H194.496C194.414 37.3771 194.387 37.3771 194.387 37.2418V36.917C194.387 36.8223 194.387 36.7952 194.523 36.7952C194.659 36.7952 195.367 36.7952 196.742 36.7952C198.117 36.7952 198.648 36.7952 198.825 36.7952C199.002 36.7952 198.934 36.7952 198.934 36.9035V37.2553C198.934 37.35 198.934 37.3771 198.825 37.3771H198.212C198.045 37.3615 197.878 37.4104 197.747 37.5137C197.615 37.617 197.528 37.7668 197.504 37.9319C197.504 38.1079 197.504 38.9604 197.504 39.7994V41.5722C197.504 42.2894 197.504 43.3044 197.504 43.7645C197.509 44.3915 197.688 45.0049 198.022 45.5373C198.252 45.8287 198.548 46.0616 198.887 46.2168C199.225 46.3721 199.596 46.4453 199.968 46.4304C200.674 46.4318 201.358 46.1876 201.901 45.7403C202.195 45.4116 202.421 45.0284 202.566 44.6127C202.711 44.197 202.772 43.757 202.745 43.3179V40.7332C202.736 39.8289 202.682 38.9256 202.582 38.0267C202.582 37.8684 202.522 37.7159 202.413 37.6002C202.305 37.4846 202.156 37.4145 201.997 37.4042H201.479C201.398 37.4042 201.37 37.4042 201.37 37.2959V36.9441C201.37 36.8493 201.37 36.8223 201.479 36.8223C201.588 36.8223 202.296 36.8223 203.249 36.8223C204.202 36.8223 204.61 36.8223 204.719 36.8223C204.828 36.8223 204.855 36.8223 204.855 36.9441V37.2688C204.855 37.3636 204.855 37.4042 204.774 37.4042H204.202C204.125 37.3986 204.047 37.4088 203.974 37.434C203.901 37.4593 203.833 37.499 203.776 37.5509C203.719 37.6028 203.673 37.6658 203.641 37.7359C203.608 37.8061 203.591 37.882 203.589 37.959C203.589 38.1349 203.589 40.1378 203.589 40.3272C203.589 40.5167 203.589 43.0337 203.508 43.5886C203.497 44.0971 203.384 44.5983 203.176 45.063C202.968 45.5277 202.669 45.9465 202.296 46.2951C201.559 46.9015 200.625 47.2191 199.669 47.1882C198.963 47.1962 198.262 47.077 197.599 46.8364C197.189 46.6668 196.823 46.407 196.528 46.0765C196.234 45.7461 196.018 45.3535 195.898 44.9283C195.653 43.7906 195.566 42.6251 195.639 41.4639L195.653 38.0943Z" fill="#141E3C"/>
<path d="M206.121 43.7915C206.121 43.7915 206.203 43.7915 206.203 43.8998C206.246 44.4839 206.438 45.0474 206.761 45.5373C206.962 45.8554 207.241 46.117 207.572 46.2971C207.904 46.4772 208.276 46.5697 208.654 46.5657C208.889 46.5822 209.125 46.5515 209.348 46.4754C209.57 46.3994 209.776 46.2795 209.951 46.1229C210.126 45.9663 210.268 45.7762 210.368 45.564C210.468 45.3518 210.524 45.1218 210.532 44.8877C210.532 43.5344 209.92 43.142 208.395 42.5736C207.629 42.2999 206.919 41.892 206.298 41.3692C206.043 41.0963 205.847 40.774 205.723 40.4224C205.599 40.0707 205.549 39.6974 205.577 39.3258C205.569 38.9339 205.657 38.546 205.832 38.195C206.008 37.8439 206.266 37.5402 206.584 37.3094C207.154 36.8342 207.884 36.5923 208.626 36.6328C209.251 36.6263 209.87 36.7413 210.451 36.9711C210.494 37.002 210.547 37.0186 210.6 37.0186C210.654 37.0186 210.706 37.002 210.75 36.9711L210.941 36.7816C210.964 36.7551 210.994 36.7341 211.027 36.72C211.06 36.706 211.095 36.6993 211.131 36.7005C211.227 36.7005 211.254 36.7816 211.254 36.9305C211.254 37.0794 211.485 39.1634 211.485 39.2987C211.485 39.434 211.485 39.3934 211.39 39.407L211.158 39.4746C211.144 39.4787 211.129 39.4797 211.114 39.4778C211.1 39.4759 211.085 39.4709 211.073 39.4633C211.06 39.4557 211.049 39.4456 211.04 39.4336C211.032 39.4215 211.025 39.4079 211.022 39.3934C210.835 38.8304 210.528 38.3137 210.124 37.8778C209.936 37.671 209.704 37.5089 209.445 37.4035C209.186 37.2981 208.906 37.252 208.626 37.2688C208.221 37.2504 207.824 37.3923 207.523 37.6636C207.222 37.9349 207.041 38.3135 207.02 38.7168C206.988 38.9573 207.006 39.2018 207.074 39.4348C207.142 39.6678 207.258 39.8842 207.415 40.0701C207.933 40.4837 208.53 40.7876 209.171 40.9632C209.952 41.1436 210.67 41.5265 211.254 42.0729C211.511 42.3474 211.708 42.6719 211.832 43.026C211.956 43.3801 212.005 43.756 211.975 44.1299C212.002 44.5428 211.942 44.9568 211.799 45.3455C211.656 45.7343 211.434 46.0893 211.146 46.3882C210.858 46.6871 210.511 46.9234 210.126 47.0821C209.742 47.2407 209.328 47.3184 208.912 47.31C208.044 47.3708 207.181 47.1266 206.475 46.6199C206.298 46.4981 206.203 46.4439 206.121 46.4439C206.04 46.4439 205.985 46.5657 205.89 46.7011C205.795 46.8364 205.754 46.877 205.631 46.877C205.509 46.877 205.454 46.7958 205.454 46.6469C205.454 46.4981 205.686 44.1569 205.713 43.9404C205.74 43.7239 205.713 43.8321 205.808 43.8321L206.121 43.7915Z" fill="#141E3C"/>
<path d="M216.454 42.3436C216.454 42.4924 216.454 45.7808 216.454 45.9432C216.454 46.3898 216.686 46.4575 217.026 46.4575H217.639C217.652 46.4555 217.666 46.4565 217.679 46.4604C217.692 46.4643 217.705 46.4709 217.715 46.4799C217.725 46.4889 217.734 46.5001 217.739 46.5125C217.745 46.525 217.748 46.5385 217.747 46.5522V46.9176C217.747 46.9988 217.747 47.0258 217.598 47.0258C217.448 47.0258 216.863 47.0258 215.501 47.0258C214.14 47.0258 213.432 47.0258 213.282 47.0258C213.132 47.0258 213.173 47.0258 213.173 46.9311V46.5387C213.173 46.5387 213.173 46.4575 213.282 46.4575H213.854C214.153 46.4575 214.467 46.4575 214.521 46.038C214.575 45.6185 214.521 42.7495 214.521 41.9782V40.9768C214.521 40.6384 214.521 38.0537 214.521 37.8778C214.521 37.7019 214.33 37.3906 213.936 37.3906H213.187C213.092 37.3906 213.064 37.3906 213.064 37.2824V36.917C213.064 36.8358 213.064 36.8087 213.16 36.8087C213.255 36.8087 214.072 36.8087 215.488 36.8087C216.903 36.8087 217.339 36.8087 217.53 36.8087C217.72 36.8087 217.652 36.8087 217.652 36.944V37.2688C217.654 37.2853 217.653 37.3022 217.647 37.318C217.642 37.3337 217.633 37.3481 217.621 37.3599C217.609 37.3717 217.595 37.3806 217.579 37.3859C217.563 37.3912 217.546 37.3929 217.53 37.3906H216.985C216.672 37.3906 216.441 37.4989 216.441 37.7695C216.441 38.0402 216.441 41.0715 216.441 41.2339L216.454 42.3436Z" fill="#141E3C"/>
<path d="M221.028 40.5031C221.028 42.939 221.151 44.9554 221.178 45.3884C221.178 46.1056 221.382 46.4575 221.9 46.4575H222.267C222.39 46.4575 222.39 46.4575 222.39 46.5793V46.9176C222.39 46.9988 222.39 47.0258 222.267 47.0258C222.145 47.0258 221.26 47.0258 220.715 47.0258H219.218C219.218 47.0258 219.136 47.0258 219.136 46.8905V46.5387C219.136 46.5171 219.145 46.4965 219.16 46.4813C219.175 46.466 219.196 46.4575 219.218 46.4575H219.708C220.089 46.4575 220.28 46.1327 220.361 45.2666C220.361 45.0095 220.456 43.0067 220.456 40.7061V38.8927C220.456 38.0266 219.966 37.3771 219.34 37.3771H218.877C218.809 37.3771 218.782 37.3771 218.782 37.2688V36.8899C218.782 36.8222 218.782 36.7952 218.877 36.7952H219.327C219.585 36.7952 219.966 36.7952 220.606 36.7952C220.851 36.7952 221.069 36.7952 221.232 36.7952H221.641C221.704 36.7908 221.768 36.8008 221.827 36.8242C221.886 36.8476 221.938 36.884 221.981 36.9305C222.131 37.0658 224.949 40.5978 225.248 40.9903L227.971 44.2923H228.039V42.8037C228.039 41.5451 228.039 40.8279 228.039 40.0971C228.039 39.3664 227.958 38.1484 227.889 37.9049C227.837 37.7455 227.735 37.6071 227.598 37.5097C227.461 37.4123 227.296 37.3611 227.127 37.3635H226.664C226.583 37.3635 226.583 37.2959 226.583 37.2282V36.9034C226.583 36.8087 226.583 36.7816 226.691 36.7816C226.8 36.7816 227.331 36.7816 228.298 36.7816C229.264 36.7816 229.509 36.7816 229.659 36.7816C229.809 36.7816 229.809 36.7816 229.809 36.8899V37.2147C229.809 37.2959 229.809 37.3635 229.714 37.3635H229.319C229.033 37.3635 228.883 37.5936 228.842 38.1214C228.774 39.0957 228.625 41.5045 228.625 42.9661V46.7417C228.625 46.9446 228.625 47.1476 228.448 47.1476C228.261 47.1332 228.087 47.0513 227.958 46.9176C227.849 46.7687 227.073 45.8756 226.174 44.82C225.276 43.7645 224.037 42.2488 223.873 42.0188C223.71 41.7887 221.369 38.9469 221.151 38.7439H221.055L221.028 40.5031Z" fill="#141E3C"/>
<path d="M233.961 42.8307C233.961 43.6021 233.961 45.0095 233.961 45.2666C233.961 46.0109 234.22 46.2951 234.533 46.3763C234.902 46.469 235.282 46.51 235.663 46.4981C235.921 46.4981 236.588 46.4981 236.874 46.4981C237.305 46.4399 237.713 46.2721 238.059 46.0109C238.539 45.525 238.993 45.0146 239.42 44.4817C239.42 44.4817 239.515 44.4005 239.583 44.4817L239.815 44.6306C239.815 44.6306 239.815 44.6982 239.815 44.7659L239.121 46.9176C239.102 46.9842 239.06 47.0423 239.003 47.0818C238.946 47.1213 238.877 47.1398 238.807 47.1341H237.514H231.497H230.884C230.789 47.1341 230.762 47.1341 230.762 47.0259V46.674C230.762 46.5928 230.762 46.5657 230.912 46.5657H231.429C232.082 46.5657 232.15 46.471 232.15 45.9432V41.0309C232.15 39.8536 232.15 38.0808 232.15 37.8778C232.15 37.6748 231.946 37.3771 231.524 37.3771H230.98C230.98 37.3771 230.884 37.3771 230.884 37.2688V36.9035C230.884 36.8223 230.884 36.7952 230.98 36.7952C231.293 36.7952 231.81 36.7952 232.995 36.7952H233.389H237.977H238.549C238.63 36.7952 238.658 36.7952 238.671 36.8899C238.685 36.9847 239.27 39.0145 239.325 39.1634C239.379 39.3123 239.325 39.2987 239.325 39.3258L239.066 39.4341C239.066 39.4341 238.984 39.4341 238.944 39.3664C238.459 38.7858 237.927 38.247 237.351 37.756C237.02 37.5546 236.648 37.4297 236.262 37.3906H234.07V41.5181C234.492 41.5181 235.54 41.5181 235.704 41.4504C235.852 41.4347 235.993 41.3783 236.111 41.2874C236.228 41.1966 236.318 41.075 236.371 40.9362C236.494 40.6855 236.572 40.4153 236.602 40.1378C236.6 40.1212 236.601 40.1044 236.607 40.0886C236.612 40.0728 236.621 40.0585 236.633 40.0467C236.645 40.0349 236.659 40.026 236.675 40.0207C236.691 40.0153 236.708 40.0137 236.725 40.016H237.092C237.092 40.016 237.187 40.016 237.174 40.1378C237.16 40.2595 237.174 41.3151 237.174 41.6805C237.174 42.0459 237.174 42.939 237.269 43.2638C237.269 43.3315 237.269 43.345 237.147 43.3585H236.834C236.834 43.3585 236.752 43.3585 236.711 43.2638C236.654 43.0187 236.577 42.7787 236.48 42.5466C236.418 42.4036 236.318 42.2801 236.191 42.1894C236.064 42.0988 235.914 42.0444 235.758 42.0323C235.241 42.0323 234.56 41.9376 234.097 41.9376L233.961 42.8307Z" fill="#141E3C"/>
<path d="M241.666 43.7915C241.666 43.7915 241.762 43.7915 241.762 43.8998C241.792 44.4843 241.98 45.0499 242.306 45.5373C242.508 45.8545 242.787 46.1154 243.118 46.2954C243.449 46.4753 243.821 46.5684 244.198 46.5657C244.433 46.5822 244.669 46.5515 244.892 46.4754C245.115 46.3994 245.32 46.2795 245.496 46.1229C245.671 45.9663 245.813 45.7762 245.913 45.564C246.013 45.3518 246.068 45.1218 246.077 44.8877C246.077 43.5344 245.478 43.142 243.94 42.5736C243.175 42.2973 242.466 41.8896 241.843 41.3692C241.588 41.0963 241.392 40.774 241.268 40.4224C241.144 40.0707 241.094 39.6974 241.122 39.3258C241.114 38.9339 241.202 38.546 241.377 38.195C241.552 37.8439 241.81 37.5402 242.129 37.3094C242.699 36.8342 243.429 36.5923 244.171 36.6328C244.796 36.6263 245.415 36.7413 245.995 36.9711C246.039 37.002 246.091 37.0186 246.145 37.0186C246.199 37.0186 246.251 37.002 246.295 36.9711L246.485 36.7816C246.509 36.7551 246.539 36.7341 246.572 36.72C246.605 36.706 246.64 36.6993 246.676 36.7005C246.771 36.7005 246.799 36.7816 246.799 36.9305C246.799 37.0794 247.03 39.1634 247.03 39.2987C247.03 39.434 247.03 39.3934 246.935 39.407L246.717 39.4746C246.702 39.481 246.685 39.4839 246.669 39.4831C246.653 39.4823 246.637 39.4778 246.622 39.47C246.608 39.4622 246.595 39.4512 246.586 39.438C246.576 39.4247 246.57 39.4095 246.567 39.3934C246.38 38.8304 246.073 38.3137 245.669 37.8778C245.481 37.671 245.249 37.5089 244.99 37.4035C244.731 37.2981 244.451 37.252 244.171 37.2688C243.765 37.2504 243.369 37.3923 243.068 37.6636C242.767 37.9349 242.586 38.3135 242.565 38.7168C242.532 38.9573 242.551 39.2018 242.619 39.4348C242.687 39.6678 242.803 39.8842 242.96 40.0701C243.481 40.4863 244.084 40.7904 244.729 40.9632C245.505 41.1464 246.219 41.5291 246.799 42.0729C247.056 42.3474 247.252 42.6719 247.377 43.026C247.501 43.3801 247.55 43.756 247.52 44.1299C247.547 44.5428 247.486 44.9568 247.344 45.3455C247.201 45.7343 246.979 46.0893 246.691 46.3882C246.403 46.6871 246.056 46.9234 245.671 47.0821C245.287 47.2407 244.873 47.3184 244.457 47.31C243.589 47.3708 242.726 47.1266 242.02 46.6199C241.843 46.4981 241.762 46.4439 241.666 46.4439C241.571 46.4439 241.53 46.5657 241.435 46.7011C241.34 46.8364 241.299 46.877 241.176 46.877C241.054 46.877 240.999 46.7958 240.999 46.6469C240.999 46.4981 241.231 44.1569 241.271 43.9404C241.312 43.7239 241.271 43.8321 241.353 43.8321L241.666 43.7915Z" fill="#141E3C"/>
<path d="M249.698 43.7915C249.698 43.7915 249.78 43.7915 249.78 43.8998C249.817 44.483 250.005 45.0468 250.324 45.5373C250.528 45.8556 250.81 46.117 251.143 46.297C251.477 46.4769 251.851 46.5694 252.23 46.5657C252.465 46.5803 252.7 46.5483 252.922 46.4715C253.144 46.3947 253.349 46.2747 253.524 46.1185C253.699 45.9623 253.841 45.773 253.941 45.5616C254.041 45.3503 254.099 45.1212 254.109 44.8877C254.109 43.5344 253.496 43.142 251.972 42.5736C251.201 42.3014 250.486 41.8934 249.862 41.3692C249.606 41.0963 249.41 40.774 249.286 40.4224C249.162 40.0707 249.112 39.6974 249.14 39.3258C249.136 38.9345 249.225 38.5477 249.4 38.1972C249.575 37.8467 249.831 37.5425 250.147 37.3094C250.722 36.8334 251.456 36.5916 252.203 36.6328C252.823 36.6238 253.439 36.7389 254.014 36.9711C254.057 37.004 254.109 37.0219 254.163 37.0219C254.218 37.0219 254.27 37.004 254.313 36.9711L254.504 36.7816C254.53 36.7547 254.562 36.7336 254.597 36.7196C254.632 36.7057 254.67 36.6991 254.708 36.7005C254.79 36.7005 254.817 36.7816 254.817 36.9305C254.817 37.0794 255.048 39.1634 255.048 39.2987C255.05 39.3112 255.05 39.3239 255.047 39.3361C255.043 39.3483 255.038 39.3598 255.03 39.3699C255.023 39.38 255.013 39.3885 255.002 39.3948C254.991 39.4012 254.979 39.4053 254.967 39.407L254.735 39.4746C254.704 39.4831 254.672 39.4794 254.644 39.4642C254.616 39.449 254.595 39.4237 254.585 39.3934C254.409 38.8284 254.107 38.3102 253.701 37.8778C253.511 37.6733 253.279 37.5127 253.02 37.4075C252.761 37.3023 252.482 37.2549 252.203 37.2688C252.001 37.2579 251.799 37.2867 251.608 37.3536C251.417 37.4204 251.241 37.5241 251.091 37.6586C250.94 37.7931 250.818 37.9559 250.731 38.1374C250.644 38.319 250.594 38.5159 250.583 38.7168C250.549 38.9583 250.568 39.2043 250.638 39.4379C250.709 39.6714 250.829 39.8871 250.991 40.0701C251.508 40.4863 252.106 40.7905 252.748 40.9632C253.523 41.1464 254.237 41.5291 254.817 42.0729C255.074 42.3474 255.271 42.6719 255.395 43.026C255.519 43.3801 255.568 43.756 255.538 44.1299C255.567 44.5422 255.509 44.9558 255.367 45.3445C255.226 45.7332 255.005 46.0885 254.718 46.3876C254.431 46.6868 254.085 46.9233 253.701 47.0821C253.317 47.2409 252.905 47.3185 252.489 47.31C251.616 47.3729 250.749 47.1286 250.039 46.6199C249.862 46.4981 249.78 46.4439 249.698 46.4439C249.617 46.4439 249.548 46.5657 249.467 46.7011C249.385 46.8364 249.317 46.877 249.208 46.877C249.099 46.877 249.031 46.7958 249.031 46.6469C249.031 46.4981 249.263 44.1569 249.29 43.9404C249.317 43.7239 249.29 43.8321 249.371 43.8321L249.698 43.7915Z" fill="#141E3C"/>
<path d="M171.625 23.8309C171.625 23.4655 171.625 21.4221 171.543 21.2056C171.462 20.9891 171.312 20.8132 171.026 20.8132H170.236C170.222 20.8155 170.206 20.8143 170.192 20.8096C170.178 20.805 170.165 20.7971 170.154 20.7866C170.144 20.776 170.136 20.7631 170.131 20.7489C170.126 20.7347 170.125 20.7196 170.127 20.7049V20.2989C170.127 20.2989 170.127 20.2042 170.25 20.2042C170.672 20.2042 171.421 20.2042 172.428 20.2042C173.15 20.2042 173.871 20.2042 174.593 20.2042C176.313 20.0383 178.033 20.5213 179.412 21.5574C179.946 21.9976 180.372 22.5531 180.657 23.1816C180.943 23.81 181.08 24.4949 181.059 25.1842C181.098 25.868 180.998 26.5526 180.764 27.1969C180.53 27.8411 180.167 28.4316 179.698 28.9327C179.071 29.4864 178.337 29.9075 177.542 30.1704C176.746 30.4333 175.905 30.5325 175.069 30.4619H172.346C171.08 30.4619 170.509 30.4619 170.304 30.4619C170.1 30.4619 170.223 30.4619 170.223 30.3401V29.9747C170.223 29.9747 170.223 29.8935 170.332 29.8935H171.176C171.231 29.9011 171.288 29.8977 171.342 29.8833C171.396 29.869 171.447 29.8441 171.491 29.8101C171.535 29.7761 171.572 29.7337 171.6 29.6852C171.628 29.6368 171.645 29.5834 171.652 29.5282C171.652 29.244 171.748 26.0097 171.748 24.9135L171.625 23.8309ZM173.436 25.1842C173.436 25.3466 173.436 27.7825 173.436 28.6756C173.431 28.965 173.527 29.2469 173.708 29.474C173.871 29.7447 174.429 29.8665 174.974 29.8665C175.551 29.8682 176.121 29.7385 176.64 29.4876C177.159 29.2366 177.614 28.8709 177.969 28.4185C178.659 27.4711 179.022 26.3268 179.003 25.1571C178.989 24.0142 178.581 22.9107 177.846 22.0311C176.992 21.1749 175.833 20.6886 174.62 20.6778C174.308 20.6463 173.993 20.6976 173.708 20.8267C173.607 20.8965 173.528 20.9932 173.48 21.1057C173.431 21.2182 173.416 21.342 173.436 21.4627C173.436 22.0582 173.436 23.9257 173.436 24.1692V25.1842Z" fill="#141E3C"/>
<path d="M203.181 23.831C203.181 23.4656 203.181 21.4221 203.099 21.2056C203.018 20.9891 202.868 20.8132 202.568 20.8132H201.792C201.778 20.8155 201.762 20.8143 201.748 20.8097C201.734 20.805 201.721 20.7971 201.71 20.7866C201.7 20.776 201.692 20.7631 201.687 20.7489C201.682 20.7347 201.681 20.7197 201.684 20.7049V20.2989C201.684 20.2989 201.684 20.2042 201.806 20.2042C202.228 20.2042 202.977 20.2042 203.984 20.2042C204.706 20.2042 205.427 20.2042 206.149 20.2042C207.865 20.0337 209.583 20.5174 210.954 21.5575C211.487 22.0004 211.91 22.559 212.191 23.1902C212.471 23.8213 212.603 24.5082 212.574 25.1978C212.614 25.8816 212.513 26.5662 212.279 27.2104C212.045 27.8546 211.683 28.4451 211.213 28.9463C210.584 29.5003 209.848 29.9216 209.05 30.1844C208.252 30.4473 207.408 30.5463 206.571 30.4755H203.848C202.582 30.4755 202.01 30.4755 201.806 30.4755C201.602 30.4755 201.724 30.4755 201.724 30.3537V29.9883C201.724 29.9883 201.724 29.9071 201.833 29.9071H202.677C202.732 29.9147 202.788 29.9111 202.841 29.8966C202.894 29.8821 202.944 29.8571 202.987 29.8229C203.031 29.7887 203.067 29.7462 203.093 29.6979C203.119 29.6495 203.135 29.5964 203.14 29.5417C203.14 29.2575 203.249 26.0232 203.249 24.9271L203.181 23.831ZM204.992 25.1842C204.992 25.3466 204.992 27.7825 204.992 28.6756C204.991 28.9623 205.081 29.2419 205.25 29.4741C205.424 29.6256 205.627 29.739 205.848 29.8066C206.068 29.8743 206.301 29.8947 206.53 29.8665C207.107 29.8682 207.677 29.7386 208.196 29.4876C208.715 29.2366 209.17 28.8709 209.525 28.4185C210.215 27.4711 210.578 26.3268 210.56 25.1572C210.545 24.0142 210.137 22.9108 209.402 22.0311C208.548 21.175 207.389 20.6886 206.176 20.6779C205.86 20.6477 205.541 20.6989 205.25 20.8267C205.154 20.9002 205.079 20.9979 205.034 21.1097C204.988 21.2216 204.974 21.3434 204.992 21.4627C204.992 22.0582 204.992 23.9257 204.992 24.1693V25.1842Z" fill="#141E3C"/>
<path d="M216.223 26.2668C216.223 27.0382 216.223 28.4456 216.223 28.7027C216.223 29.447 216.481 29.7312 216.794 29.8124C217.164 29.9051 217.544 29.9461 217.924 29.9342C218.183 29.9342 218.837 29.9342 219.136 29.9342C219.563 29.8781 219.967 29.7099 220.307 29.447C220.791 28.9646 221.245 28.4539 221.668 27.9178C221.668 27.8501 221.763 27.8366 221.831 27.9178L222.063 28.0667C222.063 28.0667 222.063 28.1343 222.063 28.202L221.369 30.3537C221.35 30.4203 221.308 30.4784 221.251 30.5179C221.194 30.5574 221.125 30.5759 221.056 30.5702H219.762H213.745H213.119C213.037 30.5702 213.01 30.5702 213.01 30.4619V30.1101C213.01 30.0289 213.01 30.0018 213.146 30.0018H213.731C214.399 30.0018 214.453 29.9071 214.453 29.3793V24.467C214.453 23.2896 214.453 21.5169 214.453 21.3139C214.453 21.1109 214.249 20.8132 213.827 20.8132H213.269C213.269 20.8132 213.187 20.8132 213.187 20.7049V20.2989C213.187 20.2177 213.187 20.1907 213.269 20.1907C213.595 20.1907 214.113 20.2583 215.297 20.1907H215.692H220.28H220.851C220.866 20.1888 220.88 20.1897 220.894 20.1935C220.908 20.1972 220.921 20.2037 220.933 20.2125C220.944 20.2213 220.953 20.2323 220.961 20.2448C220.968 20.2574 220.972 20.2711 220.974 20.2854C220.974 20.4613 221.573 22.41 221.627 22.5589C221.682 22.7077 221.627 22.6942 221.627 22.7213L221.369 22.8295C221.369 22.8295 221.287 22.8295 221.246 22.8295C220.758 22.2522 220.226 21.7137 219.653 21.2192C219.322 21.0177 218.95 20.8928 218.564 20.8538H216.372V24.9136C216.794 24.9136 217.843 24.9136 218.006 24.9136C218.154 24.8978 218.295 24.8414 218.413 24.7506C218.531 24.6598 218.621 24.5381 218.673 24.3993C218.797 24.1486 218.875 23.8784 218.905 23.6009C218.905 23.5062 218.905 23.4791 219.013 23.4791H219.395C219.395 23.4791 219.49 23.4791 219.476 23.6009C219.463 23.7227 219.476 24.7782 219.476 25.1436C219.476 25.712 219.476 26.4021 219.558 26.7269C219.558 26.7946 219.558 26.8081 219.449 26.8217H219.136C219.068 26.8217 219.041 26.8217 219.013 26.7269C218.957 26.4818 218.879 26.2419 218.782 26.0097C218.72 25.8667 218.621 25.7432 218.493 25.6526C218.366 25.5619 218.217 25.5076 218.061 25.4955C217.543 25.4955 216.863 25.4007 216.4 25.4007L216.223 26.2668Z" fill="#141E3C"/>
<path d="M224.622 23.9392C224.622 26.3751 224.745 28.3914 224.772 28.8245C224.772 29.5417 224.963 29.8935 225.494 29.8935H225.861C225.984 29.8935 225.984 29.8935 225.984 30.0153V30.3537C225.984 30.4349 225.984 30.4619 225.861 30.4619C225.739 30.4619 224.854 30.4619 224.309 30.4619H222.812C222.812 30.4619 222.716 30.4619 222.716 30.3266V29.9747C222.72 29.952 222.731 29.9313 222.749 29.9163C222.766 29.9014 222.789 29.8933 222.812 29.8935H223.261C223.628 29.8935 223.833 29.5688 223.901 28.7027C223.901 28.4456 224.01 26.4427 224.01 24.1422V22.3288C224.01 21.4627 223.52 20.8132 222.88 20.8132H222.417C222.404 20.8115 222.392 20.8074 222.381 20.801C222.37 20.7946 222.361 20.7862 222.353 20.7761C222.346 20.766 222.34 20.7545 222.337 20.7423C222.334 20.7301 222.333 20.7174 222.335 20.7049V20.2989C222.335 20.2989 222.335 20.2042 222.417 20.2042H222.866C223.125 20.2042 223.52 20.2042 224.146 20.2042C224.391 20.2042 224.609 20.2042 224.786 20.2042H225.194C225.257 20.2008 225.32 20.2112 225.379 20.2345C225.438 20.2579 225.491 20.2937 225.534 20.3395C225.671 20.4748 228.502 24.0069 228.788 24.3993C229.074 24.7917 231.238 27.4171 231.511 27.7013V26.2127C231.511 24.9541 231.511 24.2369 231.511 23.5062C231.495 22.7731 231.44 22.0413 231.347 21.3139C231.301 21.1509 231.2 21.0085 231.062 20.91C230.923 20.8116 230.755 20.7631 230.585 20.7726H230.068C229.986 20.7726 229.986 20.7049 229.986 20.6372V20.2989C229.986 20.2042 229.986 20.1771 230.108 20.1771C230.231 20.1771 230.735 20.1771 231.715 20.1771C232.695 20.1771 232.926 20.1771 233.076 20.1771C233.226 20.1771 233.212 20.2448 233.212 20.2854V20.6102C233.212 20.6914 233.212 20.759 233.131 20.759H232.79C232.504 20.759 232.368 20.9891 232.314 21.5169C232.246 22.4912 232.096 24.9 232.096 26.348V30.1371C232.096 30.3401 232.096 30.5431 231.933 30.5431C231.745 30.5327 231.57 30.4501 231.443 30.3131L229.646 28.2155C228.706 27.0652 227.522 25.712 227.345 25.4684C227.168 25.2248 224.84 22.3965 224.622 22.1935V23.9392Z" fill="#141E3C"/>
<path d="M237.664 27.2276C237.664 27.2276 237.746 27.2276 237.746 27.3359C237.789 27.92 237.981 28.4835 238.304 28.9733C238.504 29.2915 238.783 29.5531 239.115 29.7332C239.446 29.9133 239.818 30.0058 240.196 30.0018C240.431 30.0164 240.666 29.9844 240.888 29.9076C241.11 29.8308 241.315 29.7108 241.489 29.5546C241.664 29.3984 241.806 29.2091 241.907 28.9977C242.007 28.7864 242.064 28.5573 242.075 28.3238C242.075 26.9705 241.462 26.5781 239.937 26.0097C239.172 25.736 238.462 25.3281 237.841 24.8053C237.586 24.5324 237.39 24.2101 237.266 23.8584C237.141 23.5068 237.092 23.1335 237.119 22.7619C237.112 22.37 237.199 21.9821 237.375 21.6311C237.55 21.28 237.808 20.9762 238.127 20.7455C238.696 20.2703 239.426 20.0284 240.169 20.0689C240.793 20.0624 241.413 20.1773 241.993 20.4072C242.037 20.4381 242.089 20.4547 242.143 20.4547C242.196 20.4547 242.249 20.4381 242.292 20.4072L242.483 20.2177C242.507 20.1912 242.536 20.1701 242.569 20.1561C242.602 20.1421 242.638 20.1354 242.674 20.1365C242.769 20.1365 242.796 20.2177 242.796 20.3666C242.796 20.5155 243.028 22.5995 243.028 22.7348C243.028 22.8701 243.028 22.8295 242.932 22.8431H242.701C242.687 22.8471 242.672 22.8482 242.657 22.8462C242.642 22.8443 242.628 22.8394 242.615 22.8317C242.602 22.8241 242.591 22.814 242.583 22.802C242.574 22.79 242.568 22.7763 242.565 22.7619C242.377 22.1989 242.071 21.6821 241.666 21.2462C241.479 21.0395 241.247 20.8773 240.987 20.7719C240.728 20.6665 240.448 20.6205 240.169 20.6373C239.967 20.6263 239.766 20.6552 239.576 20.7223C239.386 20.7893 239.211 20.8932 239.061 21.0279C238.912 21.1625 238.791 21.3253 238.705 21.5068C238.62 21.6883 238.571 21.8849 238.562 22.0852C238.539 22.3148 238.563 22.5467 238.63 22.7673C238.698 22.988 238.809 23.1931 238.957 23.3708C239.475 23.7844 240.073 24.0884 240.713 24.264C241.494 24.4443 242.213 24.8272 242.796 25.3737C243.053 25.6481 243.25 25.9727 243.374 26.3268C243.499 26.6809 243.547 27.0568 243.518 27.4306C243.544 27.8436 243.484 28.2576 243.341 28.6463C243.199 29.035 242.976 29.3901 242.688 29.689C242.4 29.9879 242.053 30.2241 241.669 30.3828C241.284 30.5415 240.871 30.6191 240.455 30.6108C239.582 30.6691 238.716 30.4252 238.004 29.9206C237.841 29.7988 237.746 29.7447 237.664 29.7447C237.582 29.7447 237.514 29.8665 237.432 30.0018C237.351 30.1372 237.296 30.1777 237.174 30.1777C237.051 30.1777 236.997 30.0966 236.997 29.9477C236.997 29.7988 237.228 27.4577 237.255 27.2412C237.283 27.0246 237.255 27.1329 237.351 27.1329L237.664 27.2276Z" fill="#141E3C"/>
<path d="M254.572 28.0801C254.572 28.0801 254.572 28.1749 254.572 28.229C254.116 28.954 253.484 29.5542 252.736 29.9749C251.987 30.3956 251.144 30.6235 250.284 30.6378C249.596 30.6769 248.907 30.5771 248.259 30.3445C247.611 30.112 247.017 29.7514 246.513 29.2845C246.007 28.7744 245.608 28.1697 245.34 27.5053C245.071 26.841 244.938 26.1302 244.947 25.4142C244.941 24.023 245.461 22.6803 246.404 21.6521C246.887 21.1535 247.469 20.761 248.114 20.5C248.759 20.2389 249.452 20.1151 250.147 20.1365C251.159 20.1264 252.158 20.3584 253.061 20.8131C253.265 20.9349 253.319 20.9349 253.36 20.8131L253.469 20.4477C253.469 20.3665 253.469 20.3665 253.701 20.3665C253.932 20.3665 253.905 20.3665 253.905 20.5966C253.905 20.8267 254.191 23.1407 254.245 23.5738C254.245 23.655 254.245 23.6956 254.245 23.7091L253.973 23.8038C253.891 23.8038 253.85 23.8038 253.809 23.655C253.572 22.9621 253.192 22.3261 252.693 21.7875C252.367 21.4519 251.975 21.1854 251.542 21.004C251.11 20.8226 250.644 20.7301 250.175 20.7319C247.874 20.7319 246.921 22.8024 246.921 24.8594C246.917 26.2209 247.4 27.5397 248.282 28.5808C248.582 28.943 248.961 29.2323 249.391 29.427C249.82 29.6216 250.288 29.7164 250.76 29.7041C251.425 29.7141 252.083 29.5687 252.682 29.2796C253.28 28.9905 253.801 28.5657 254.204 28.0395C254.272 27.9313 254.327 27.8907 254.368 27.9313L254.572 28.0801Z" fill="#141E3C"/>
<path d="M258.656 25.4413C258.506 25.4413 258.452 25.4413 258.452 25.6172V26.2397C258.452 26.754 258.452 28.4185 258.452 29.4064C258.452 29.7447 258.615 29.8935 258.942 29.8935H259.459C259.568 29.8935 259.595 29.8935 259.595 29.9883V30.3131C259.595 30.4078 259.595 30.4619 259.459 30.4619C259.323 30.4619 258.71 30.4619 257.526 30.4619C256.165 30.4619 255.675 30.4619 255.389 30.4619C255.103 30.4619 255.253 30.4619 255.253 30.3401V30.0018C255.253 29.9206 255.253 29.8935 255.389 29.8935H256.137C256.491 29.8935 256.546 29.5417 256.546 29.2169C256.546 28.5268 256.546 26.8893 256.546 25.9826V24.1422C256.546 23.7227 256.546 21.9364 256.546 21.7198C256.546 21.0161 256.464 20.8132 256.001 20.8132H255.361C255.342 20.8151 255.323 20.813 255.305 20.807C255.287 20.8011 255.27 20.7914 255.256 20.7786C255.242 20.7659 255.231 20.7503 255.223 20.7329C255.215 20.7156 255.212 20.6968 255.212 20.6778V20.3801C255.212 20.3406 255.227 20.3028 255.256 20.2749C255.284 20.2469 255.322 20.2313 255.361 20.2313C255.62 20.2313 256.083 20.2313 257.499 20.2313C258.915 20.2313 259.309 20.2313 259.568 20.2313C259.827 20.2313 259.718 20.2989 259.718 20.3666V20.6643C259.718 20.7455 259.718 20.8132 259.568 20.8132H259.051C258.533 20.8132 258.479 21.0432 258.465 21.598C258.465 21.801 258.384 23.6821 258.384 24.061V24.6294C258.384 24.7782 258.384 24.8323 258.561 24.8323H263.312C263.543 24.8323 263.598 24.8323 263.598 24.6294V24.2098C263.598 23.6821 263.598 21.6792 263.598 21.5033C263.598 21.0432 263.53 20.7861 263.216 20.7861H262.549C262.454 20.7861 262.44 20.7861 262.44 20.6508V20.2989C262.44 20.2989 262.44 20.1771 262.549 20.1771C262.658 20.1771 263.448 20.1771 264.591 20.1771C265.735 20.1771 266.266 20.1771 266.497 20.1771C266.729 20.1771 266.674 20.2448 266.674 20.3125V20.6102C266.674 20.6914 266.674 20.759 266.497 20.759H265.98C265.544 20.759 265.517 20.9891 265.517 21.4898C265.517 21.6792 265.517 23.6279 265.517 24.0881V25.712C265.517 26.3345 265.517 28.4185 265.517 29.1898C265.517 29.7041 265.667 29.9071 266.089 29.9071H266.674C266.756 29.9071 266.783 29.9071 266.783 30.0018V30.3266C266.783 30.4213 266.783 30.4754 266.647 30.4754C266.511 30.4754 265.925 30.4754 264.687 30.4754C263.448 30.4754 262.862 30.4754 262.468 30.4754C262.451 30.4777 262.434 30.4761 262.418 30.4707C262.402 30.4654 262.388 30.4565 262.376 30.4447C262.364 30.4329 262.355 30.4186 262.35 30.4028C262.345 30.387 262.343 30.3702 262.345 30.3537V30.0153C262.345 29.9477 262.345 29.9071 262.468 29.9071H263.244C263.584 29.9071 263.598 29.65 263.611 29.2575C263.611 28.5674 263.611 26.2803 263.611 26.0232V25.6172C263.611 25.4954 263.502 25.4548 263.298 25.4548L258.656 25.4413Z" fill="#141E3C"/>
<path d="M276.353 21.2056C276.979 21.7232 277.48 22.3737 277.819 23.109C278.158 23.8444 278.327 24.646 278.314 25.4548C278.333 26.5938 277.953 27.704 277.238 28.5944C276.744 29.2619 276.091 29.7976 275.338 30.1541C274.586 30.5106 273.756 30.6767 272.923 30.6378C271.773 30.6115 270.651 30.2848 269.669 29.6906C268.996 29.2102 268.451 28.5727 268.083 27.8342C267.715 27.0956 267.535 26.2786 267.559 25.4548C267.588 24.1482 268.069 22.8912 268.92 21.8958C269.408 21.2922 270.032 20.812 270.742 20.4945C271.452 20.177 272.227 20.0311 273.005 20.0689C274.24 20.0244 275.45 20.4284 276.408 21.2056H276.353ZM270.867 21.4898C270.019 22.4509 269.559 23.6895 269.574 24.9677C269.574 28.6891 271.875 30.0018 273.086 30.0018C275.999 30.0018 276.462 26.7946 276.462 25.5902C276.462 22.4641 274.325 20.6914 272.95 20.6914C272.565 20.6574 272.176 20.7117 271.815 20.8501C271.454 20.9885 271.13 21.2073 270.867 21.4898" fill="#141E3C"/>
<path d="M288.497 21.2056C289.122 21.7232 289.623 22.3737 289.962 23.109C290.301 23.8444 290.47 24.646 290.457 25.4548C290.475 26.5913 290.1 27.6995 289.395 28.5944C288.897 29.2612 288.242 29.7962 287.487 30.1525C286.732 30.5088 285.901 30.6754 285.066 30.6378C283.917 30.6083 282.796 30.2819 281.812 29.6906C281.14 29.2095 280.598 28.5715 280.232 27.8329C279.867 27.0943 279.689 26.2776 279.716 25.4548C279.749 24.149 280.229 22.8935 281.077 21.8958C281.564 21.2922 282.189 20.812 282.898 20.4945C283.608 20.177 284.384 20.0311 285.161 20.0689C286.397 20.0231 287.607 20.4273 288.565 21.2056H288.497ZM283.038 21.4898C282.161 22.438 281.675 23.6796 281.676 24.9677C281.676 28.6891 283.991 30.0018 285.202 30.0018C288.102 30.0018 288.565 26.7946 288.565 25.5902C288.565 22.4641 286.441 20.6914 285.052 20.6914C284.669 20.6574 284.283 20.7118 283.924 20.8503C283.565 20.9888 283.243 21.2076 282.983 21.4898" fill="#141E3C"/>
<path d="M300 27.4712C300 27.4712 300 27.4712 300 27.6065C300 27.7419 299.36 30.0695 299.278 30.4619H293.289C291.927 30.4619 291.464 30.4619 291.301 30.4619C291.138 30.4619 291.178 30.4619 291.178 30.3401V30.0018C291.178 29.9206 291.178 29.8935 291.26 29.8935H291.845C292.363 29.8935 292.444 29.6906 292.444 29.5011C292.444 29.3116 292.444 25.6578 292.444 24.8053V24.0069C292.444 23.0866 292.444 21.571 292.444 21.3003C292.444 21.0297 292.363 20.7861 291.982 20.7861H291.383C291.301 20.7861 291.26 20.6914 291.26 20.6508V20.2989C291.26 20.2042 291.26 20.1771 291.383 20.1771C291.505 20.1771 292.05 20.1771 293.37 20.1771C294.922 20.1771 295.535 20.1771 295.644 20.1771C295.753 20.1771 295.793 20.2448 295.793 20.3125V20.6372C295.793 20.6372 295.793 20.759 295.644 20.759H294.868C294.432 20.759 294.378 20.8944 294.378 21.2868C294.378 21.6792 294.378 23.6279 294.378 24.6429V25.8744C294.378 26.1315 294.378 29.2169 294.378 29.8394H295.181C295.989 29.8573 296.798 29.8302 297.604 29.7582C298.407 29.65 299.333 27.9313 299.537 27.39C299.537 27.39 299.619 27.2953 299.714 27.39L300 27.4712Z" fill="#141E3C"/>
<path d="M200.948 29.9206C200.586 29.9567 200.223 29.8605 199.927 29.6499C199.488 29.1274 199.079 28.5807 198.702 28.0125C198.58 27.8366 197.695 26.4968 197.518 26.2668C197.298 25.9667 196.995 25.7364 196.647 25.6037V25.6037C198.239 25.3466 199.369 24.6023 199.369 22.8024C199.361 22.4949 199.287 22.1926 199.154 21.9152C199.02 21.6377 198.829 21.3913 198.593 21.1921C197.86 20.5775 196.924 20.2545 195.966 20.2854C195.544 20.2854 194.21 20.2854 193.407 20.2854C192.045 20.2854 191.528 20.2854 191.433 20.2854C191.337 20.2854 191.337 20.2854 191.337 20.3936V20.7725C191.337 20.7725 191.337 20.8673 191.433 20.8673H191.95C192.209 20.8673 192.413 21.0973 192.413 21.5845V25.3466C192.413 26.6998 192.413 28.0531 192.413 29.4064C192.413 29.7853 192.181 29.88 191.868 29.88H190.888C190.688 29.8639 190.495 29.7936 190.332 29.6767C190.169 29.5599 190.041 29.4008 189.962 29.2169C189.758 28.8245 188.846 26.1721 188.492 25.0489C188.233 24.1286 187.131 20.9891 186.858 20.0418C186.858 19.9471 186.763 19.7847 186.681 19.7847C186.6 19.7847 186.545 19.7847 186.464 19.92C186.055 20.2352 185.594 20.4779 185.102 20.6372C184.993 20.6372 184.966 20.7184 184.966 20.7861C184.977 20.8471 185.005 20.9036 185.048 20.9485C185.13 21.0432 185.048 21.3003 185.048 21.4356L183.686 25.1977C183.251 26.4021 182.216 28.9733 182.08 29.2575C181.944 29.5417 181.563 29.9071 181.154 29.9071H180.719C180.719 29.9071 180.637 29.9071 180.637 30.0153V30.286C180.637 30.3942 180.637 30.4754 180.719 30.4754C180.8 30.4754 181.236 30.4754 182.312 30.4754C183.387 30.4754 183.918 30.4754 184.122 30.4754C184.326 30.4754 184.231 30.4754 184.231 30.3266V29.9747C184.231 29.9747 184.231 29.9071 184.095 29.9071H183.482C183.196 29.9071 182.965 29.7447 182.965 29.5552C182.954 29.4563 182.954 29.3564 182.965 29.2575C183.047 28.8786 183.741 26.8216 183.863 26.551H187.212C187.376 27.0788 187.961 28.9057 188.07 29.4334C188.179 29.9612 188.07 29.9612 187.634 29.9612H187.267C187.172 29.9612 187.144 29.9612 187.144 30.0695V30.3536C187.144 30.4484 187.144 30.5296 187.294 30.5296C187.444 30.5296 188.097 30.5296 189.309 30.5296H193.393C194.89 30.5296 195.176 30.5296 195.367 30.5296C195.557 30.5296 195.517 30.5296 195.517 30.4078V30.0559C195.517 30.0559 195.517 29.9612 195.408 29.9612H194.686C194.455 29.9612 194.359 29.7041 194.305 29.4064C194.251 29.1086 194.305 27.593 194.305 26.6998V25.9149H194.768C195.38 25.9149 195.707 26.3074 196.129 26.8081C196.41 27.2046 196.669 27.6157 196.905 28.0396C197.041 28.2696 197.599 29.2981 197.858 29.7041C198.031 30.0039 198.247 30.2773 198.498 30.516H199.764C200.69 30.516 201.125 30.516 201.125 30.516C201.125 30.516 201.234 30.516 201.234 30.3672V30.0695C201.234 30.0695 201.234 29.9747 201.125 29.9747L200.948 29.9206ZM184.095 25.9149C184.19 25.5902 185.456 22.0717 185.552 21.8552C185.647 21.6386 185.647 21.6657 185.729 21.6657C185.81 21.6657 185.824 21.7604 185.878 21.9228C185.933 22.0852 186.94 25.4819 187.09 25.8879L184.095 25.9149ZM194.673 25.4413C194.485 25.4305 194.299 25.4079 194.114 25.3736V21.3139C194.11 21.2351 194.123 21.1563 194.154 21.0836C194.184 21.0108 194.232 20.9461 194.291 20.8943C194.453 20.8201 194.631 20.7876 194.809 20.7996C195.501 20.7584 196.182 20.981 196.715 21.4221C197.14 21.8416 197.385 22.4097 197.395 23.0054C197.389 23.348 197.312 23.6856 197.17 23.9976C197.028 24.3097 196.823 24.5895 196.568 24.8201C196.313 25.0507 196.013 25.2271 195.687 25.3386C195.362 25.4501 195.016 25.4942 194.673 25.4684" fill="#141E3C"/>
<path d="M154.513 0H153.941V67H154.513V0Z" fill="#1A3866"/>
<path fill-rule="evenodd" clip-rule="evenodd" d="M39.9853 33.6285C41.5838 33.7537 43.1704 33.27 44.4233 32.2753C45.0578 31.702 45.563 31.0016 45.9056 30.2202C46.2482 29.4388 46.4204 28.5942 46.4109 27.7418C46.4926 26.8216 46.5334 22.7077 46.5334 22.3288C46.5334 21.9499 46.5334 18.6615 46.5334 18.4314C46.5334 18.2014 46.6695 17.4841 47.5408 17.4841H48.521C48.6299 17.4841 48.6571 17.3894 48.6571 17.2541V16.7398C48.6571 16.7398 48.6571 16.5774 48.4257 16.5774C48.1942 16.5774 47.4455 16.5774 45.8119 16.5774C44.1783 16.5774 43.0892 16.5774 42.9122 16.5774C42.7352 16.5774 42.7488 16.5774 42.7488 16.7398V17.3082C42.7488 17.4165 42.7488 17.4841 42.9122 17.4841H43.9468C44.2261 17.4841 44.4942 17.5934 44.6929 17.7885C44.8916 17.9835 45.0051 18.2485 45.0087 18.5261C45.1137 19.7682 45.1546 21.0149 45.1312 22.2611V27.2953C45.2636 28.7799 44.8259 30.2593 43.906 31.4363C42.9421 32.3269 41.6687 32.8118 40.3529 32.7895C39.635 32.8357 38.9168 32.7055 38.2616 32.4105C37.6063 32.1155 37.0341 31.6647 36.5956 31.0979C36.0687 30.195 35.8047 29.1642 35.8332 28.1208C35.8332 27.3629 35.7107 24.3722 35.7107 23.1272V21.5033C35.7107 20.2989 35.7107 18.6479 35.7107 18.4449C35.7316 18.1672 35.8621 17.9089 36.0738 17.7264C36.2854 17.5439 36.561 17.452 36.8406 17.4706H38.025C38.1883 17.4706 38.2156 17.4706 38.2156 17.3082V16.6992C38.2156 16.6045 38.2156 16.5639 37.9977 16.5639C37.7799 16.5639 36.6364 16.5639 34.7577 16.5639C32.8791 16.5639 31.7628 16.5639 31.5177 16.5639C31.2727 16.5639 31.3135 16.5639 31.3135 16.7534V17.2676C31.3135 17.43 31.3135 17.4706 31.4769 17.4706H32.5932C33.3147 17.4706 33.4917 17.8495 33.4917 18.675V24.2775C33.3989 26.1888 33.5222 28.1043 33.8592 29.9883C34.0185 30.7095 34.3611 31.3782 34.8545 31.9302C35.3479 32.4823 35.9754 32.8993 36.6772 33.1414C37.7049 33.4961 38.7891 33.6612 39.8764 33.6285" fill="#141E3C"/>
<path fill-rule="evenodd" clip-rule="evenodd" d="M59.3573 25.5225C59.3573 24.4805 59.3573 22.816 59.439 21.6928C59.439 21.3409 59.6159 21.1515 60.2694 21.1515H60.5144C60.6233 21.1515 60.6778 21.0838 60.6778 20.9756V20.4343C60.6778 20.2854 60.6778 20.2313 60.5008 20.2313C60.3238 20.2313 59.4117 20.3125 58.8808 20.3125C58.0504 20.3125 56.9477 20.2313 56.7707 20.2313C56.5938 20.2313 56.5938 20.2313 56.5938 20.3666V20.9756C56.5938 21.1109 56.5938 21.1515 56.7707 21.1515H57.2064C57.3925 21.1326 57.5803 21.1657 57.7486 21.247C57.9169 21.3282 58.0591 21.4545 58.1593 21.6116C58.3018 22.4066 58.3702 23.2129 58.3635 24.0204C58.3635 24.8324 58.3635 25.6308 58.3635 27.0788V28.7703H58.2682C57.9551 28.432 55.5455 25.4413 55.1099 24.9135C54.6743 24.3858 51.6112 20.5696 51.5295 20.4613C51.4479 20.3531 51.2709 20.2583 50.9169 20.2583C50.563 20.2583 50.0729 20.2583 49.6509 20.2583C49.2289 20.2583 48.9566 20.2583 48.6299 20.2583C48.3031 20.2583 48.0173 20.2583 47.9628 20.2583C47.9419 20.2582 47.9213 20.2625 47.9022 20.2708C47.8831 20.2791 47.8659 20.2913 47.8518 20.3066C47.8377 20.3219 47.827 20.3399 47.8203 20.3596C47.8136 20.3792 47.8112 20.4001 47.8131 20.4207V21.0297C47.8131 21.1379 47.8131 21.1785 47.9628 21.1785H48.1942C48.3761 21.1666 48.5585 21.1934 48.7291 21.2572C48.8997 21.3209 49.0547 21.4202 49.1836 21.5484C49.3125 21.6765 49.4123 21.8305 49.4765 22.0001C49.5406 22.1697 49.5676 22.351 49.5556 22.5318V25.2383C49.5556 28.1208 49.5556 29.9342 49.4739 30.2454C49.4705 30.443 49.391 30.6318 49.2517 30.7728C49.1123 30.9139 48.9239 30.9963 48.7252 31.0032H48.1534C48.0717 31.0032 48.0581 31.0032 48.0581 31.0844V31.7475C48.0581 31.8693 48.0581 31.9234 48.1262 31.9234C48.1942 31.9234 49.4875 31.9234 49.8551 31.9234C50.5902 31.9234 51.6248 31.9234 51.8018 31.9234C51.9788 31.9234 51.9379 31.9234 51.9379 31.7746V31.125C51.9379 31.0168 51.9379 30.9626 51.8018 30.9626H51.2709C51.0122 30.9626 50.7263 30.692 50.6447 30.0965C50.6447 29.8665 50.4949 27.3088 50.4949 25.7796V22.2747C50.9033 22.7348 52.9862 25.4955 53.5988 26.2127L56.3215 29.2575C57.3697 30.5025 58.241 31.5581 58.4316 31.734C58.5954 31.8775 58.7999 31.9673 59.0169 31.9911C59.3301 31.9911 59.3981 31.734 59.3981 31.5039L59.3573 25.5225Z" fill="#141E3C"/>
<path fill-rule="evenodd" clip-rule="evenodd" d="M65.4697 25.2654C65.4697 25.0895 65.4697 22.0446 65.4697 21.7875C65.4697 21.2597 65.7284 21.1515 66.409 21.1515H66.8583C66.9808 21.1515 67.008 21.0838 67.008 20.9755V20.3666C67.0081 20.3476 67.0042 20.3288 66.9965 20.3115C66.9888 20.2941 66.9776 20.2785 66.9635 20.2658C66.9493 20.253 66.9327 20.2433 66.9146 20.2374C66.8964 20.2314 66.8773 20.2293 66.8583 20.2312C66.6405 20.2312 65.3336 20.3124 64.5848 20.3124C63.4141 20.2989 61.7668 20.2989 61.6579 20.2989C61.549 20.2989 61.5082 20.2989 61.5082 20.4613V21.0432C61.5082 21.1515 61.5082 21.2191 61.6579 21.2191H62.1208C63.2099 21.2191 63.4821 21.4762 63.4821 21.7604C63.4821 22.0446 63.4821 24.6699 63.4821 25.0759V26.1991C63.4821 27.0787 63.4821 30.2589 63.4821 30.5431C63.4821 31.0032 63.0193 31.0303 62.3658 31.0303H61.7668C61.746 31.0302 61.7253 31.0344 61.7062 31.0427C61.6871 31.0511 61.6699 31.0633 61.6558 31.0785C61.6417 31.0938 61.631 31.1119 61.6243 31.1315C61.6177 31.1512 61.6152 31.172 61.6171 31.1927V31.7475C61.6171 31.8828 61.6171 31.9505 61.7668 31.9505C61.9166 31.9505 63.4141 31.9505 64.2853 31.9505C65.4425 31.9505 66.7766 31.9505 67.008 31.9505C67.2394 31.9505 67.1578 31.9505 67.1578 31.7746V31.125C67.1578 31.0438 67.1578 30.9897 67.008 30.9897H66.6268C65.8781 30.9897 65.565 30.6378 65.5241 30.0424C65.5241 29.6635 65.5241 26.7269 65.5241 26.578L65.4697 25.2654Z" fill="#141E3C"/>
<path fill-rule="evenodd" clip-rule="evenodd" d="M91.5259 25.9826C91.5259 27.5389 91.5259 29.0545 91.5259 30.2995C91.5259 30.8679 91.2128 30.9626 90.6002 30.9626H90.2871C90.2681 30.9607 90.2489 30.9628 90.2308 30.9688C90.2127 30.9747 90.196 30.9844 90.1819 30.9972C90.1678 31.0099 90.1565 31.0255 90.1488 31.0428C90.1412 31.0602 90.1372 31.079 90.1373 31.098V31.6799C90.1373 31.8152 90.1373 31.8829 90.2871 31.8829C90.4368 31.8829 91.7846 31.8829 92.4244 31.8829C93.2684 31.8829 94.657 31.8829 94.8476 31.8829C95.0382 31.8829 95.0518 31.8829 95.0518 31.7069V31.125C95.0518 31.0438 95.0518 30.9897 94.8884 30.9897H94.2214C94.1308 31.0013 94.0387 30.9935 93.9514 30.9667C93.8641 30.94 93.7835 30.895 93.7152 30.8347C93.6468 30.7745 93.5922 30.7004 93.5551 30.6174C93.5179 30.5344 93.4991 30.4445 93.4999 30.3537V26.957C93.7213 26.9279 93.9455 26.9279 94.1669 26.957C95.256 26.957 95.6372 27.5254 96.5629 29.1087C97.0818 30.1031 97.7022 31.0417 98.4143 31.9099C98.85 31.9099 99.4626 31.9099 100.062 31.9099H100.851H101.368C101.477 31.9099 101.518 31.9099 101.518 31.734V31.2198C101.518 31.0709 101.518 30.9897 101.396 30.9897C100.988 31.032 100.579 30.9314 100.239 30.7055C99.6881 30.2294 99.2029 29.6834 98.7955 29.0816C97.7473 27.593 97.23 26.8081 96.6446 26.6728C98.673 25.9691 99.6668 24.9406 99.6668 23.1814C99.628 22.4651 99.3049 21.7934 98.7683 21.3139C97.8052 20.5874 96.6125 20.2274 95.4057 20.2989H92.5197C92.0704 20.2989 90.4641 20.2989 90.3552 20.2989C90.2462 20.2989 90.2054 20.2989 90.2054 20.4343V21.0432C90.2054 21.1515 90.2054 21.2191 90.3007 21.2191H90.5594C91.2809 21.2191 91.5123 21.5033 91.5395 22.0176V26.0774L91.5259 25.9826ZM93.4726 21.6522C93.4726 21.1921 93.8674 21.0974 94.2486 21.0974C95.1097 21.0676 95.9596 21.2988 96.6854 21.7605C96.958 21.9655 97.1778 22.2319 97.3268 22.5377C97.4759 22.8434 97.55 23.18 97.5431 23.5197C97.5431 24.1828 97.1074 26.2262 94.2486 26.2262C93.9903 26.2439 93.731 26.2439 93.4726 26.2262V21.6522Z" fill="#141E3C"/>
<path fill-rule="evenodd" clip-rule="evenodd" d="M105.847 32.1129C106.322 32.1383 106.798 32.064 107.242 31.8947C107.686 31.7255 108.09 31.4653 108.426 31.1308C108.763 30.7964 109.024 30.3953 109.195 29.9536C109.365 29.512 109.44 29.0396 109.414 28.5674C109.46 28.1238 109.41 27.6755 109.267 27.2529C109.123 26.8303 108.89 26.4433 108.584 26.118C107.787 25.473 106.858 25.0109 105.861 24.7647C105.153 24.5566 104.505 24.1857 103.969 23.6821C103.699 23.3229 103.555 22.8854 103.56 22.4371C103.576 22.2153 103.635 21.9988 103.736 21.8001C103.836 21.6014 103.975 21.4245 104.145 21.2797C104.315 21.1349 104.512 21.0251 104.724 20.9566C104.937 20.8881 105.162 20.8624 105.384 20.8808C105.7 20.8619 106.016 20.9142 106.308 21.0337C106.6 21.1532 106.862 21.3369 107.073 21.571C107.494 22.1201 107.825 22.7322 108.053 23.3844C108.054 23.4016 108.059 23.4184 108.067 23.4333C108.076 23.4482 108.088 23.4609 108.103 23.4701C108.118 23.4794 108.134 23.4851 108.152 23.4866C108.169 23.4882 108.186 23.4856 108.202 23.4791L108.665 23.3844C108.747 23.3844 108.761 23.3032 108.761 23.222C108.761 22.8701 108.516 21.2056 108.516 20.3666C108.516 20.2313 108.516 20.1365 108.284 20.1365C108.053 20.1365 107.998 20.1365 107.944 20.1365L107.835 20.326C107.835 20.4478 107.658 20.4207 107.399 20.326C106.826 20.0722 106.201 19.9563 105.575 19.9877C104.705 19.9543 103.852 20.2275 103.165 20.759C102.84 21.0207 102.574 21.3475 102.384 21.7182C102.194 22.0889 102.084 22.4952 102.063 22.9107C102.016 23.3867 102.072 23.8672 102.226 24.32C102.381 24.7727 102.632 25.1874 102.961 25.5361C103.71 26.1367 104.564 26.5954 105.48 26.8893C106.841 27.4036 107.835 28.0396 107.835 29.5011C107.835 30.5973 106.61 31.2333 105.779 31.2333C105.334 31.2394 104.895 31.124 104.511 30.8998C104.127 30.6755 103.813 30.3509 103.601 29.9612C103.284 29.4345 103.123 28.8292 103.138 28.2155C103.138 28.1208 103.029 28.0667 102.934 28.0396H102.471C102.362 28.0396 102.321 28.1208 102.294 28.2291C102.294 28.635 102.09 30.6785 102.008 31.3957C102.008 31.5175 102.008 31.6257 102.213 31.6663C102.417 31.7069 102.553 31.6663 102.594 31.5445L102.675 31.3416C102.675 31.1386 102.88 31.1656 103.057 31.3416C103.862 31.9469 104.851 32.2619 105.861 32.2347" fill="#141E3C"/>
<path fill-rule="evenodd" clip-rule="evenodd" d="M113.77 25.2654C113.77 25.0895 113.77 22.0446 113.77 21.7875C113.77 21.2597 114.029 21.1515 114.723 21.1515H115.159C115.295 21.1515 115.322 21.0838 115.322 20.9756V20.3666C115.322 20.2854 115.322 20.2313 115.159 20.2313C114.996 20.2313 113.648 20.3125 112.899 20.3125C111.687 20.3125 110.095 20.2313 109.945 20.2313C109.795 20.2313 109.795 20.2313 109.795 20.3937V20.9756C109.795 21.0838 109.795 21.1515 109.945 21.1515H110.408C111.483 21.1515 111.769 21.4086 111.769 21.6928C111.769 21.977 111.769 24.6023 111.769 25.0083V26.1315C111.769 27.0111 111.769 30.1913 111.769 30.4755C111.769 30.9356 111.306 30.9626 110.666 30.9626H110.095C110.074 30.9625 110.053 30.9668 110.034 30.9751C110.015 30.9834 109.998 30.9956 109.984 31.0109C109.97 31.0262 109.959 31.0442 109.952 31.0639C109.945 31.0835 109.943 31.1044 109.945 31.125V31.6799C109.945 31.8152 109.945 31.8828 110.095 31.8828C110.244 31.8828 111.742 31.8828 112.613 31.8828C113.77 31.8828 115.118 31.8828 115.336 31.8828C115.554 31.8828 115.486 31.8829 115.486 31.7069V31.125C115.486 31.0438 115.486 30.9897 115.336 30.9897H114.859C114.722 31.0114 114.582 31.0031 114.449 30.9653C114.315 30.9275 114.191 30.8611 114.086 30.7709C113.981 30.6807 113.898 30.5688 113.841 30.4429C113.784 30.3171 113.755 30.1804 113.757 30.0424C113.757 29.6635 113.757 26.7269 113.757 26.5781L113.77 25.2654Z" fill="#141E3C"/>
<path fill-rule="evenodd" clip-rule="evenodd" d="M44.8589 40.0024C47.2277 40.0024 48.6435 36.7817 48.6435 34.9954C48.6686 34.7548 48.642 34.5117 48.5654 34.2822C48.4888 34.0526 48.364 33.8419 48.1992 33.664C48.0344 33.4861 47.8334 33.3451 47.6096 33.2503C47.3857 33.1556 47.1442 33.1092 46.901 33.1143C44.7364 33.1143 43.1845 35.8209 43.1845 37.9184C43.1309 38.4151 43.2767 38.9127 43.5903 39.303C43.9039 39.6932 44.3598 39.9446 44.8589 40.0024V40.0024ZM44.6139 39.2446C44.5089 39.2432 44.4054 39.2202 44.3098 39.1771C44.2142 39.1341 44.1285 39.0718 44.0583 38.9943C43.988 38.9168 43.9345 38.8257 43.9013 38.7268C43.8681 38.6278 43.8558 38.5231 43.8651 38.4191C43.9488 37.4809 44.2773 36.5807 44.8181 35.8073C45.6349 34.4541 46.4925 33.8857 47.1732 33.8857C47.289 33.8849 47.4036 33.9086 47.5095 33.9552C47.6154 34.0018 47.71 34.0702 47.7873 34.156C47.8645 34.2417 47.9225 34.3428 47.9575 34.4525C47.9925 34.5622 48.0035 34.6781 47.99 34.7924C47.99 35.8479 46.3156 39.2446 44.6139 39.2446" fill="#141E3C"/>
<path fill-rule="evenodd" clip-rule="evenodd" d="M71.6638 40.4084C71.6638 40.2325 71.6638 37.1876 71.6638 36.9305C71.6638 36.4027 71.9225 36.2945 72.6168 36.2945H73.0524C73.1885 36.2945 73.2158 36.2133 73.2158 36.1186V35.5096C73.2158 35.4284 73.2158 35.3743 73.0524 35.3743C72.889 35.3743 71.5413 35.4555 70.7926 35.4555C69.5946 35.4555 67.9882 35.3743 67.8384 35.3743C67.8182 35.3721 67.7978 35.3745 67.7787 35.3812C67.7595 35.388 67.7422 35.3989 67.7278 35.4131C67.7134 35.4274 67.7025 35.4447 67.6957 35.4637C67.6889 35.4828 67.6865 35.503 67.6887 35.5231V36.1186C67.6887 36.2133 67.6887 36.2945 67.8384 36.2945H68.3013C69.3768 36.2945 69.6626 36.5516 69.6626 36.8358C69.6626 37.12 69.6626 39.7453 69.6626 40.1513V41.2745C69.6626 42.1406 69.6626 45.3343 69.6626 45.6185C69.6626 46.0786 69.1998 46.1056 68.56 46.1056H68.0018C67.981 46.1037 67.9601 46.1062 67.9403 46.1128C67.9205 46.1195 67.9024 46.1301 67.887 46.1441C67.8716 46.1582 67.8594 46.1752 67.851 46.1942C67.8426 46.2132 67.8384 46.2337 67.8384 46.2545V46.8229C67.8384 46.9447 67.8384 47.0258 68.0018 47.0258C68.1652 47.0258 69.649 46.9447 70.5203 46.9447C71.6774 46.9447 73.0116 47.0258 73.243 47.0258C73.4744 47.0258 73.3927 46.9447 73.3927 46.8499V46.241C73.3927 46.1598 73.3927 46.1056 73.243 46.1056H72.7937C72.045 46.1056 71.7319 45.7538 71.6774 45.1583C71.6774 44.7794 71.6774 41.8429 71.6774 41.6805L71.6638 40.4084Z" fill="#141E3C"/>
<path fill-rule="evenodd" clip-rule="evenodd" d="M75.3803 41.1256C75.3803 42.6819 75.3803 44.184 75.3803 45.4426C75.3803 46.0109 75.0808 46.1057 74.4546 46.1057H74.1551C74.0462 46.1057 73.9918 46.1057 73.9918 46.2274V46.8229C73.9918 46.9447 73.9918 47.0259 74.1551 47.0259C74.3185 47.0259 75.639 46.9447 76.2788 46.9447C77.1365 46.9447 78.525 47.0259 78.702 47.0259C78.879 47.0259 78.9062 47.0259 78.9062 46.8499V46.2274C78.9062 46.2274 78.9062 46.1057 78.7565 46.1057H78.103C78.0135 46.1152 77.9229 46.1058 77.8372 46.0781C77.7516 46.0505 77.6727 46.0051 77.6059 45.9451C77.5391 45.885 77.4858 45.8117 77.4495 45.7297C77.4131 45.6478 77.3946 45.5592 77.3951 45.4696V42.1C77.6164 42.0698 77.8409 42.0698 78.0622 42.1C79.1377 42.1 79.5188 42.6548 80.4446 44.2381C80.96 45.2388 81.5806 46.1823 82.296 47.0529C82.7316 47.0529 83.3578 47.0529 83.9432 47.0529H84.7464H85.2501C85.2728 47.053 85.2952 47.0484 85.3159 47.0394C85.3367 47.0304 85.3554 47.0172 85.3707 47.0007C85.3861 46.9841 85.3978 46.9646 85.4052 46.9433C85.4125 46.922 85.4154 46.8994 85.4135 46.877V46.3628C85.4135 46.2139 85.4135 46.1327 85.2773 46.1327C84.8703 46.1727 84.4617 46.0724 84.1202 45.8485C83.5911 45.3692 83.1327 44.8179 82.7588 44.2111C81.697 42.736 81.1797 41.9376 80.5943 41.8158C82.6227 41.0986 83.6301 40.0836 83.6301 38.3244C83.5828 37.6103 83.2611 36.9417 82.7316 36.4569C81.7677 35.7437 80.5825 35.3893 79.3827 35.4555L76.5103 35.5367C76.0474 35.5367 74.4546 35.4555 74.3185 35.4555C74.2995 35.4536 74.2803 35.4557 74.2622 35.4616C74.2441 35.4676 74.2274 35.4772 74.2133 35.49C74.1992 35.5028 74.1879 35.5183 74.1802 35.5357C74.1726 35.5531 74.1686 35.5718 74.1687 35.5908V36.1998C74.1687 36.2945 74.1687 36.3757 74.264 36.3757H74.5227C75.2442 36.3757 75.4756 36.6599 75.5029 37.1741V41.2339L75.3803 41.1256ZM77.4768 36.7546C77.4768 36.2945 77.8716 36.1998 78.2528 36.1998C79.1139 36.17 79.9638 36.4013 80.6896 36.8629C80.9621 37.068 81.1819 37.3343 81.331 37.6401C81.4801 37.9459 81.5542 38.2824 81.5472 38.6221C81.5472 39.2852 81.1116 41.3286 78.2528 41.3286C77.9945 41.347 77.7351 41.347 77.4768 41.3286V36.7546Z" fill="#141E3C"/>
<path fill-rule="evenodd" clip-rule="evenodd" d="M94.9974 43.4803C94.9974 43.0472 95.4874 42.939 95.7325 42.939H96.1817C96.1817 42.939 96.3043 42.8578 96.3043 42.7901V42.1676C96.3043 42.1 96.3043 42.0458 96.1545 42.0458C96.0048 42.0458 94.8884 42.0458 93.9355 42.0458C92.5742 42.0458 91.2945 42.0458 91.1311 42.0458C91.1145 42.0436 91.0976 42.0452 91.0817 42.0505C91.0658 42.0559 91.0514 42.0648 91.0395 42.0766C91.0277 42.0884 91.0187 42.1027 91.0133 42.1185C91.008 42.1343 91.0064 42.1511 91.0086 42.1676V42.7901C91.0064 42.8066 91.008 42.8235 91.0133 42.8393C91.0187 42.8551 91.0277 42.8694 91.0395 42.8812C91.0514 42.893 91.0658 42.9019 91.0817 42.9072C91.0976 42.9125 91.1145 42.9142 91.1311 42.9119H91.7165C92.3836 42.9119 92.9689 43.0878 92.9689 43.6833V44.6576C92.9689 45.1583 92.9689 45.4967 92.5878 45.7538C91.9484 46.1498 91.203 46.3433 90.4505 46.3086C89.5099 46.2583 88.626 45.8457 87.9864 45.1583C87.4429 44.5529 87.0248 43.8468 86.7562 43.0805C86.4876 42.3142 86.3736 41.5027 86.4209 40.6926C86.4703 39.455 86.9517 38.2732 87.7822 37.35C88.1131 36.9449 88.5271 36.6146 88.9966 36.3812C89.4661 36.1479 89.9804 36.0168 90.5049 35.9968C91.003 35.9978 91.4947 36.1088 91.9444 36.3217C92.394 36.5347 92.7905 36.8443 93.1051 37.2282C93.6154 37.7581 94.0299 38.3716 94.3303 39.0416C94.412 39.2446 94.4664 39.2716 94.5345 39.2446L95.0246 39.0957C95.1063 39.0957 95.1335 39.0145 95.1335 38.8927C95.1335 38.4326 94.7387 36.0509 94.7387 35.9291C94.7387 35.8073 94.7387 35.6449 94.4664 35.6449C94.3985 35.6368 94.3297 35.6493 94.269 35.6807C94.2082 35.712 94.1585 35.7609 94.1261 35.8208L94.0036 36.0509C94.0036 36.1321 93.8402 36.1321 93.636 35.9562C92.7652 35.4365 91.7655 35.1693 90.75 35.1848C89.078 35.1379 87.4449 35.6903 86.1486 36.741C85.5502 37.2662 85.0708 37.9118 84.7422 38.635C84.4137 39.3583 84.2434 40.1426 84.2427 40.9362C84.1915 41.7497 84.3022 42.5653 84.5685 43.3362C84.8348 44.1072 85.2515 44.8183 85.7947 45.429C87.0223 46.5977 88.6553 47.2519 90.3552 47.2559C91.8769 47.2704 93.38 46.9223 94.7387 46.2409C94.9293 46.1597 95.0246 46.0786 95.0246 45.9568C95.0246 45.835 95.0246 45.6726 95.0246 45.4425L94.9974 43.4803Z" fill="#141E3C"/>
<path fill-rule="evenodd" clip-rule="evenodd" d="M99.7076 40.4084C99.7076 40.2325 99.7076 37.1876 99.7076 36.9305C99.7076 36.4027 99.9526 36.2945 100.661 36.2945H101.096C101.219 36.2945 101.246 36.2133 101.246 36.1186V35.5096C101.246 35.4906 101.242 35.4718 101.234 35.4545C101.227 35.4371 101.215 35.4215 101.201 35.4088C101.187 35.396 101.171 35.3864 101.152 35.3804C101.134 35.3745 101.115 35.3724 101.096 35.3743C100.878 35.3743 99.5715 35.4555 98.8227 35.4555C97.6247 35.4555 96.1 35.3743 95.8686 35.3743C95.8484 35.3721 95.828 35.3745 95.8088 35.3812C95.7897 35.388 95.7723 35.3989 95.7579 35.4131C95.7436 35.4274 95.7326 35.4447 95.7259 35.4637C95.7191 35.4828 95.7167 35.503 95.7188 35.5231V36.1186C95.7188 36.2133 95.7188 36.2945 95.8686 36.2945H96.3314C97.4205 36.2945 97.6928 36.5516 97.6928 36.8358C97.6928 37.12 97.6928 39.7453 97.6928 40.1513V41.2745C97.6928 42.1406 97.6928 45.3343 97.6928 45.6185C97.6928 46.0786 97.2299 46.1056 96.5765 46.1056H96.0183C95.9981 46.1035 95.9777 46.1059 95.9586 46.1126C95.9394 46.1193 95.9221 46.1302 95.9077 46.1445C95.8933 46.1588 95.8824 46.1761 95.8756 46.1951C95.8688 46.2141 95.8664 46.2344 95.8686 46.2545V46.8229C95.8686 46.9447 95.8686 47.0258 96.0183 47.0258C96.1681 47.0258 97.6656 46.9447 98.5368 46.9447C99.694 46.9447 101.028 47.0258 101.26 47.0258C101.491 47.0258 101.409 46.9447 101.409 46.8499V46.241C101.409 46.1598 101.409 46.1056 101.26 46.1056H100.837C100.089 46.1056 99.7756 45.7538 99.7348 45.1583C99.7348 44.7794 99.7348 41.8429 99.7348 41.6805L99.7076 40.4084Z" fill="#141E3C"/>
<path fill-rule="evenodd" clip-rule="evenodd" d="M113.593 40.6655C113.554 39.3884 113.581 38.1101 113.675 36.8358C113.675 36.4704 113.852 36.2945 114.492 36.2945H114.751C114.859 36.2945 114.9 36.2133 114.9 36.1186V35.5773C114.9 35.4284 114.9 35.3743 114.723 35.3743C114.546 35.3743 113.648 35.4555 113.103 35.4555C112.286 35.4555 111.184 35.3743 110.993 35.3743C110.803 35.3743 110.816 35.3743 110.816 35.5096V36.1186C110.816 36.2404 110.816 36.2945 110.993 36.2945H111.442C111.627 36.2698 111.815 36.3004 111.983 36.3824C112.15 36.4643 112.289 36.5939 112.382 36.7546C112.531 37.5487 112.599 38.3557 112.586 39.1634C112.586 39.9754 112.668 40.7738 112.668 42.2218V43.9134H112.572C112.259 43.575 109.85 40.5843 109.4 40.0566L105.834 35.6043C105.725 35.4555 105.575 35.4013 105.221 35.4013C104.867 35.4013 104.363 35.4013 103.955 35.4013C103.547 35.4013 103.261 35.4013 102.934 35.4013C102.607 35.4013 102.308 35.4013 102.267 35.4013C102.246 35.3994 102.225 35.4019 102.205 35.4085C102.186 35.4152 102.168 35.4258 102.152 35.4398C102.137 35.4539 102.124 35.4709 102.116 35.4899C102.108 35.5089 102.103 35.5295 102.104 35.5502V36.1727C102.104 36.2674 102.104 36.3216 102.267 36.3216H102.498C102.68 36.3096 102.863 36.3364 103.033 36.4002C103.204 36.464 103.359 36.5632 103.488 36.6914C103.617 36.8195 103.716 36.9735 103.781 37.1431C103.845 37.3127 103.872 37.494 103.86 37.6748V40.3813C103.86 43.2773 103.86 45.0907 103.778 45.3884C103.775 45.5874 103.696 45.7777 103.557 45.9209C103.418 46.0641 103.229 46.1495 103.029 46.1598H102.444C102.362 46.1598 102.335 46.1598 102.335 46.241V46.9041C102.335 47.0259 102.335 47.08 102.417 47.08C102.498 47.08 103.778 46.9988 104.132 46.9988C104.881 46.9988 105.915 47.08 106.092 47.08C106.269 47.08 106.215 47.08 106.215 46.9311V46.3086C106.215 46.2139 106.215 46.1598 106.092 46.1598H105.548C105.289 46.1598 105.017 45.8756 104.935 45.2937C104.935 45.0636 104.785 42.506 104.785 40.9768V37.4177C105.207 37.8778 107.277 40.6385 107.903 41.3557L110.476 44.4005C111.524 45.6455 112.395 46.7011 112.572 46.877C112.748 47.0097 112.954 47.0979 113.171 47.1341C113.484 47.1341 113.553 46.877 113.553 46.6469L113.593 40.6655Z" fill="#141E3C"/>
<path d="M50.454 33.9804H49.011C48.9293 33.9804 48.8885 33.8992 48.9157 33.7909V33.5203C48.9157 33.3985 49.0519 33.1414 49.188 33.1414H50.5493C50.9171 31.8724 51.5374 30.6897 52.3735 29.6635C52.6984 29.3046 53.0982 29.0206 53.545 28.8312C53.9917 28.6419 54.4747 28.5518 54.9601 28.5674C55.8994 28.5674 56.4168 29.1357 56.4168 29.5282C56.4282 29.6207 56.42 29.7146 56.3925 29.8037C56.365 29.8928 56.319 29.9752 56.2573 30.0454C56.1956 30.1157 56.1198 30.1722 56.0347 30.2113C55.9495 30.2504 55.8571 30.2713 55.7633 30.2725C55.6726 30.2821 55.5808 30.2724 55.4942 30.244C55.4076 30.2155 55.3281 30.1689 55.261 30.1074C55.194 30.0459 55.1409 29.9708 55.1055 29.8873C55.07 29.8037 55.0529 29.7136 55.0554 29.6229C55.0554 29.4605 54.8784 29.1493 54.3883 29.1493C52.8773 29.1493 52.5505 31.2874 52.006 33.1008C52.006 33.1008 54.2658 33.1008 56.09 33.1008C57.9142 33.1008 59.1394 33.0331 59.3573 33.0331C59.5751 33.0331 59.5887 33.1008 59.5887 33.1955V33.8315C59.5887 33.9533 59.5887 34.0481 59.3981 34.0481H58.2682C57.6011 34.0481 57.2744 34.2511 57.2744 34.657C57.28 34.9256 57.312 35.193 57.3697 35.4555C57.5058 36.308 58.3771 39.0957 58.8127 40.4219C59.0986 41.3151 60.46 45.3613 61.0045 46.7958C61.549 45.6861 63.4005 40.8414 63.5911 40.3001C63.7816 39.7588 64.721 36.9576 65.0749 35.9291C65.2479 35.4949 65.3624 35.0399 65.4153 34.5758C65.4153 34.2917 65.2383 34.0345 64.6529 34.0345H64.0403C63.945 34.0345 63.9178 33.9669 63.9178 33.818V33.2767C63.9178 33.1549 63.9178 33.1143 64.0675 33.1143C64.2173 33.1143 65.3608 33.182 66.7902 33.182C68.5055 33.182 69.1045 33.1143 69.3223 33.1143C69.5401 33.1143 69.4857 33.1143 69.4857 33.2767V33.8315C69.4857 33.9263 69.4857 33.9939 69.3223 33.9939H68.6825C68.3467 33.9975 68.017 34.0834 67.7225 34.2439C67.4281 34.4044 67.178 34.6346 66.9944 34.9142C65.8934 37.038 64.9206 39.2252 64.0811 41.4639C63.8089 42.2488 60.7458 49.7188 60.6369 49.9624C60.528 50.206 60.4191 50.2601 60.2966 50.2601C60.1741 50.2601 60.0243 50.0301 59.9018 49.7188C59.1394 47.5536 57.1791 42.1947 56.9204 41.3557L56.7299 40.5979C56.1581 38.9198 55.0418 35.5096 54.7423 34.8059C54.4428 34.1022 54.2658 34.0345 53.7621 34.0345H51.5704C51.1483 35.3878 50.3996 38.0943 49.5828 40.1783C48.589 42.7089 47.4319 44.4953 45.6893 44.4953C45.4089 44.5183 45.1303 44.4325 44.9121 44.256C44.6938 44.0794 44.5528 43.8256 44.5186 43.548C44.5166 43.4557 44.5337 43.3639 44.5688 43.2784C44.6039 43.1929 44.6562 43.1155 44.7225 43.0508C44.7888 42.9862 44.8677 42.9357 44.9544 42.9025C45.0411 42.8693 45.1337 42.8541 45.2265 42.8578C45.4155 42.8765 45.5929 42.9571 45.7309 43.0869C45.8689 43.2168 45.9596 43.3884 45.9888 43.575C45.9945 43.6463 46.0247 43.7134 46.0742 43.7652C46.1238 43.8169 46.1898 43.8501 46.2611 43.8592C47.0507 43.8592 47.9219 42.506 48.8068 39.5017L50.454 33.9804Z" fill="#141E3C"/>
<path d="M116.616 20.2042C116.616 20.2042 116.616 20.2042 116.711 20.2042C118.268 20.3406 119.831 20.3993 121.394 20.3801H122.415C123.259 20.3801 124.171 20.3801 125.138 20.2989C125.641 20.2989 128.65 20.2989 129.222 20.2989C129.793 20.2989 131.536 20.2177 131.713 20.2177C131.738 20.2153 131.763 20.2186 131.787 20.2275C131.81 20.2363 131.831 20.2505 131.849 20.2688C131.866 20.2872 131.878 20.3092 131.886 20.3332C131.893 20.3572 131.894 20.3825 131.89 20.4072V20.962C131.89 21.0703 131.89 21.1379 131.713 21.1379H131.332C130.869 21.1379 130.842 21.4221 130.937 21.571C131.032 21.7198 133.224 25.2113 133.66 25.8202C134.054 25.1842 136.178 22.0852 136.287 21.8822C136.491 21.4763 136.518 21.1379 135.947 21.1379H135.538C135.514 21.14 135.491 21.1369 135.468 21.1288C135.446 21.1207 135.425 21.1078 135.408 21.091C135.392 21.0742 135.379 21.054 135.37 21.0317C135.362 21.0094 135.359 20.9856 135.361 20.962V20.4072C135.357 20.3825 135.358 20.3572 135.366 20.3332C135.373 20.3092 135.385 20.2872 135.402 20.2688C135.42 20.2505 135.441 20.2363 135.464 20.2275C135.488 20.2186 135.513 20.2153 135.538 20.2177C135.702 20.2177 136.981 20.2989 137.757 20.2989C138.22 20.2989 139.119 20.2177 139.268 20.2177C139.418 20.2177 139.445 20.2177 139.445 20.4207V20.962C139.445 21.0973 139.445 21.1379 139.296 21.1379H139.037C138.716 21.127 138.398 21.1968 138.111 21.3409C136.698 23.0245 135.375 24.7818 134.15 26.6051V28.7568C134.15 29.3928 134.15 30.1101 134.15 30.3943C134.15 30.922 134.613 30.9491 135.075 30.9491H135.416C135.538 30.9491 135.593 30.9491 135.593 31.0844V31.6934C135.593 31.8017 135.593 31.8693 135.388 31.8693C135.184 31.8693 133.796 31.8693 132.938 31.8693C132.38 31.8693 130.882 31.8693 130.733 31.8693C130.583 31.8693 130.556 31.8693 130.556 31.6663V31.125C130.554 31.1044 130.556 31.0835 130.563 31.0639C130.57 31.0442 130.58 31.0262 130.594 31.0109C130.609 30.9956 130.626 30.9834 130.645 30.9751C130.664 30.9668 130.685 30.9625 130.705 30.9626H131.196C132.026 30.9626 132.176 30.8138 132.203 30.4619C132.23 30.1101 132.203 29.3116 132.203 27.7554V26.8352C131.972 26.3751 128.84 21.801 128.418 21.4221C128.193 21.234 127.909 21.1289 127.615 21.1244C127.765 21.8146 127.969 22.7213 128.051 23.1543C128.051 23.2626 128.051 23.3167 127.928 23.3573L127.493 23.4926C127.329 23.4926 127.261 23.4926 127.207 23.3844C126.894 22.6604 126.456 21.9964 125.914 21.4221C124.932 21.2298 123.932 21.1436 122.932 21.165V25.4548C122.932 28.1614 122.932 30.0559 122.932 30.2589C122.932 30.4619 123.109 30.922 123.518 30.922H124.498C124.634 30.922 124.675 31.0032 124.675 31.1521V31.6934C124.675 31.7746 124.675 31.8422 124.498 31.8422C124.321 31.8422 122.728 31.8422 121.884 31.8422C121.04 31.8422 119.488 31.8422 119.284 31.8422C119.08 31.8422 119.08 31.8422 119.08 31.6122V31.125C119.08 30.9897 119.08 30.9356 119.229 30.9356H120.305C120.686 30.9356 120.863 30.7326 120.89 30.5296C120.972 29.5552 120.972 28.202 120.972 26.6728V21.2056C120.004 21.1709 119.036 21.2481 118.086 21.4357C117.447 21.9747 116.931 22.6438 116.575 23.3979C116.575 23.5062 116.439 23.5873 116.343 23.5332L115.88 23.3573C115.856 23.3484 115.833 23.3345 115.814 23.3165C115.795 23.2985 115.779 23.2767 115.769 23.2525C115.759 23.2283 115.754 23.2023 115.754 23.1761C115.755 23.1499 115.761 23.124 115.771 23.1002C115.921 22.6401 116.37 21.0567 116.575 20.2854C116.575 20.2854 116.575 20.2177 116.575 20.2042" fill="#141E3C"/>
<path d="M125.029 41.7075H128.473C128.378 41.3557 127.111 37.5259 127.111 37.3229C127.111 37.12 127.03 37.0658 126.962 37.0658C126.894 37.0658 126.826 37.1335 126.758 37.3365C126.689 37.5395 125.11 41.3963 124.974 41.7075H125.029ZM119.638 40.3543V41.6263C119.638 41.7887 119.638 44.7253 119.638 45.1042C119.638 45.6996 120.005 46.0515 120.754 46.0515H121.04C121.247 46.0473 121.45 45.9965 121.634 45.9027C121.818 45.8089 121.978 45.6747 122.102 45.5102C122.279 45.3072 123.586 42.2488 124.212 40.9632C124.389 40.6114 125.9 37.1335 126.05 36.7004C126.05 36.5516 126.267 36.2674 126.05 36.1862C125.832 36.105 125.927 36.0103 125.954 35.9291C125.982 35.8479 125.954 35.8073 126.213 35.7532C126.718 35.6109 127.183 35.3564 127.574 35.0089C127.606 34.9544 127.652 34.9094 127.707 34.8784C127.762 34.8475 127.824 34.8318 127.887 34.8329C128.037 34.8329 128.092 34.9412 128.146 35.1171C128.5 36.1456 129.821 39.7994 130.147 40.8144C130.542 42.0864 131.645 45.1042 131.822 45.3613C131.954 45.564 132.133 45.7323 132.343 45.8524C132.554 45.9724 132.791 46.0407 133.033 46.0515H133.523C133.619 46.0515 133.646 46.1327 133.646 46.2004V46.7417C133.646 46.8229 133.646 46.9717 133.469 46.9717C133.292 46.9717 131.795 46.8905 131.209 46.8905C130.624 46.8905 129.194 46.9717 128.868 46.9717C128.541 46.9717 128.663 46.8499 128.663 46.7417V46.2004C128.663 46.2004 128.663 46.0515 128.786 46.0515H129.194C129.252 46.0558 129.31 46.0474 129.364 46.027C129.418 46.0065 129.467 45.9745 129.507 45.9332C129.548 45.8919 129.578 45.8423 129.597 45.7879C129.616 45.7335 129.623 45.6756 129.616 45.6184C129.507 45.1042 128.813 43.0608 128.609 42.4789H124.525C124.416 42.7766 123.599 44.9012 123.49 45.1854C123.381 45.4696 123.422 46.0244 123.953 46.0244H124.607C124.756 46.0244 124.784 46.1056 124.784 46.2004V46.7687C124.784 46.8635 124.784 46.9446 124.634 46.9446C124.484 46.9446 123.055 46.8635 122.646 46.8635H118.521C117.637 46.8635 116.153 46.9446 116.003 46.9446C115.853 46.9446 115.84 46.8635 115.84 46.7417V46.1733C115.839 46.1525 115.844 46.132 115.852 46.113C115.86 46.094 115.873 46.077 115.888 46.0629C115.903 46.0489 115.922 46.0383 115.941 46.0316C115.961 46.025 115.982 46.0225 116.003 46.0244H116.561C117.201 46.0244 117.623 46.0244 117.664 45.5373C117.664 45.3072 117.664 42.0594 117.664 41.1933V40.0701C117.664 39.6641 117.664 37.1064 117.664 36.7546C117.664 36.4027 117.432 36.2133 116.302 36.2133H115.84C115.717 36.2133 115.69 36.1321 115.69 36.0373V35.4419C115.688 35.4218 115.69 35.4015 115.697 35.3825C115.704 35.3635 115.715 35.3462 115.729 35.3319C115.743 35.3177 115.761 35.3068 115.78 35.3C115.799 35.2933 115.819 35.2909 115.84 35.2931C115.989 35.2931 117.582 35.4013 118.794 35.3743C119.542 35.3743 120.849 35.2931 121.054 35.2931C121.258 35.2931 121.217 35.2931 121.217 35.4284V36.0373C121.217 36.1321 121.217 36.2133 121.054 36.2133H120.618C119.924 36.2133 119.692 36.3215 119.665 36.8493C119.665 37.1064 119.665 40.1513 119.665 40.3272" fill="#141E3C"/>
<path d="M72.7801 20.4207V21.0026C72.7801 21.1109 72.6985 21.1515 72.6032 21.1515H72.0042C71.6775 21.1515 71.2827 21.1515 71.2827 21.5439C71.5449 22.816 71.9231 24.0616 72.4126 25.2654C72.6304 25.9014 73.5697 28.8651 73.7739 29.3252H73.842C74.0054 28.7839 75.2033 25.6172 75.3939 25.2654C76.3605 22.4236 76.7553 21.7334 76.7553 21.4763C76.7553 21.2191 76.6464 21.2191 76.2107 21.2191H75.9385C75.8296 21.2191 75.7751 21.2191 75.7751 21.0432V20.4613C75.7751 20.4183 75.7923 20.3769 75.823 20.3465C75.8536 20.316 75.8951 20.2989 75.9385 20.2989C76.0882 20.2989 77.4223 20.3801 78.0077 20.3801H81.942L87.6324 20.2989C87.8911 20.2989 88.2178 20.2989 88.3267 20.2989C88.4356 20.2989 88.422 20.2989 88.4765 20.6643C88.5309 21.0297 89.2525 23.0866 89.3069 23.2626C89.3614 23.4385 89.3069 23.425 89.3069 23.452L88.8985 23.628C88.8762 23.6365 88.8524 23.6405 88.8285 23.6396C88.8046 23.6387 88.7811 23.6331 88.7595 23.623C88.7379 23.6129 88.7185 23.5985 88.7027 23.5807C88.6868 23.563 88.6747 23.5422 88.6671 23.5197C88.6671 23.5197 87.3057 22.0176 86.9382 21.6116C86.6677 21.3708 86.3208 21.232 85.958 21.2191H83.2353V25.5496C83.3987 25.5496 84.9098 25.4819 85.114 25.4278C85.781 25.2519 86.0397 24.8865 86.0397 24.0745C86.0397 23.9663 86.0397 23.9392 86.1622 23.9392H86.7339C86.8429 23.9392 86.9109 23.9392 86.8837 24.1016C86.8565 24.264 86.8837 25.6849 86.8837 25.915C86.8837 26.4698 86.9518 27.2682 86.979 27.593C86.979 27.7013 86.979 27.7283 86.8565 27.7283H86.3119C86.2303 27.7283 86.1894 27.7283 86.1622 27.6201C86.0261 26.984 85.8763 26.5781 85.2092 26.4157C84.5728 26.2905 83.9249 26.2316 83.2761 26.2397V27.0652C83.2761 27.9584 83.2761 29.447 83.2761 29.7718C83.2761 30.9762 84.0249 31.0574 85.1276 31.0574C86.0945 31.1812 87.0719 30.9237 87.8503 30.3401C88.3529 29.8072 88.8084 29.2322 89.2116 28.6215C89.3477 28.4456 89.4703 28.4185 89.5519 28.4726L89.9603 28.7027C89.9898 28.7208 90.0132 28.7472 90.0277 28.7785C90.0423 28.8097 90.0472 28.8446 90.042 28.8786L89.1163 31.5851C89.1163 31.7205 88.9257 31.8423 88.8304 31.8423C88.7351 31.8423 87.2921 31.8423 81.8876 31.8423C81.4247 31.8423 80.0089 31.8423 79.7094 31.8423C79.4099 31.8423 79.546 31.8423 79.546 31.6663V31.125C79.546 31.0168 79.546 30.9626 79.723 30.9626H79.9544C81.166 30.9626 81.3158 30.8679 81.3158 30.5025V25.0895C81.3158 23.7362 81.3158 22.0717 81.3158 21.8281C81.2341 21.2868 81.0844 21.1785 80.0634 21.1785H79.4508C79.2522 21.1695 79.0538 21.1996 78.8669 21.2669C78.68 21.3343 78.5083 21.4376 78.3617 21.571C77.5208 23.0028 76.8101 24.5064 76.238 26.0638C76.0065 26.6051 73.8965 31.6122 73.6922 31.937C73.6475 32.0062 73.5845 32.0617 73.51 32.0975C73.4355 32.1334 73.3526 32.148 73.2702 32.14C73.066 32.14 72.9435 31.964 72.8618 31.7611C72.3037 30.2589 70.9423 26.551 70.7245 25.9826L70.5475 25.4278C70.1119 24.2505 69.3496 21.9228 69.1862 21.6657C69.1152 21.5293 69.0105 21.413 68.8819 21.3278C68.7533 21.2425 68.6051 21.1912 68.4511 21.1785H68.1924C68.0835 21.1785 68.0563 21.1109 68.0563 21.0297V20.3937C68.0563 20.3125 68.0563 20.2583 68.2196 20.2583C68.383 20.2583 69.758 20.3395 70.425 20.3395C71.0921 20.3395 72.6032 20.2583 72.7665 20.2583C72.9299 20.2583 72.9707 20.2583 72.9707 20.4478" fill="#141E3C"/>
<path fill-rule="evenodd" clip-rule="evenodd" d="M26.6726 39.4427L27.2314 39.0328H26.6061L26.3933 38.3848L26.1804 39.0328H25.4887L26.0474 39.4427L25.8345 40.0907L26.3933 39.694L26.952 40.0907L26.6726 39.4427ZM24.8368 42.762L24.624 42.114L25.1827 41.7041H24.4909L24.2781 41.0561L24.0652 41.7041H23.3868L23.9322 42.114L23.7326 42.762L24.2781 42.3653L24.8368 42.762V42.762ZM28.5484 42.762H23.0143V31.138H28.5484V32.196H28.2823L28.0694 31.548L27.8566 32.196H27.1648L27.7236 32.6059L27.5107 33.2539L28.0694 32.8439L28.5484 33.201V35.7665H27.9364L27.7236 35.1053L27.5107 35.7665H26.819L27.3777 36.1632L27.1648 36.8112L27.7236 36.4144L28.2823 36.8112L28.0694 36.1632L28.5883 35.7929L28.5484 42.762ZM28.5484 32.4737V33.0026L28.4153 32.5795L28.5484 32.4737Z" fill="#e57200"/>
<path d="M22.1895 31.1116H19.7285V42.762H22.1895V31.1116Z" fill="#e57200"/>
<path d="M8.81991 31.1116H6.43866V42.762H8.81991V31.1116Z" fill="#e57200"/>
<path d="M12.1856 31.1116H9.64471V42.762H12.1856V31.1116Z" fill="#e57200"/>
<path d="M15.5513 31.1116H13.0104V42.762H15.5513V31.1116Z" fill="#e57200"/>
<path d="M18.9036 31.1116H16.3627V42.762H18.9036V31.1116Z" fill="#e57200"/>
<path d="M21.1386 30.2917H7.44971L14.4737 25.9938L21.1386 30.2917Z" fill="#e57200"/>
<path d="M0 25.941V30.2917H5.86665L12.9705 25.941H0Z" fill="#e57200"/>
<path d="M15.9238 25.941H28.5484V30.2917H22.6551L15.9238 25.941Z" fill="#e57200"/>
<path d="M26.7392 25.1211H1.8092C3.03269 22.8975 4.83556 21.0421 7.02874 19.7496C9.22191 18.4571 11.7246 17.7751 14.2742 17.7751C16.8238 17.7751 19.3265 18.4571 21.5196 19.7496C23.7128 21.0421 25.5157 22.8975 26.7392 25.1211" fill="#e57200"/>
<path fill-rule="evenodd" clip-rule="evenodd" d="M1.92895 39.4427L1.7161 40.0907L2.26152 39.694L2.82025 40.0907L2.66061 39.4427L3.16613 39.0725H2.48767L2.26152 38.4245L2.04867 39.0725H1.33031L1.92895 39.4427ZM0 35.74L0.558729 36.1367L0.34588 36.7847L0.904609 36.4277L1.46334 36.8244L1.25049 36.1764L1.80922 35.7797H1.11746L0.904609 35.1053L0.69176 35.7665L0 35.74ZM5.6272 42.762H4.86892L4.65607 42.114L5.2148 41.7173H4.52304L4.3102 41.0693L4.09735 41.7173H3.40559L3.99092 42.114L3.77807 42.762H0V33.201L0.532123 32.8175L1.09085 33.2274L0.878003 32.5795L1.43673 32.1695H0.744972L0.532123 31.5215L0.425698 31.8125L0.292668 32.1695H0V31.138H5.6272V42.762ZM4.85562 42.762H3.75147L4.3102 42.3653L4.85562 42.762ZM0 33.1216V32.4604L0.17294 32.5795L0 32.9233V33.1216Z" fill="#e57200"/>
<path d="M5.6139 43.5819H0V46.6763H5.6139V43.5819Z" fill="#e57200"/>
<path d="M28.5484 43.5819H23.0143V46.6763H28.5484V43.5819Z" fill="#e57200"/>
<path fill-rule="evenodd" clip-rule="evenodd" d="M18.1321 45.7639L18.6908 45.3671H17.999L17.7862 44.7059L17.5733 45.3671H16.8816L17.4403 45.7639L17.2275 46.4251L17.7862 46.0151L18.3449 46.4251L18.1321 45.7639ZM13.9549 46.2002L13.7953 46.6763H6.43866V43.5819H7.34327L7.19693 44.0712H6.50517L7.0639 44.4679L6.85105 45.1291L7.40978 44.7191L7.96851 45.1291L7.74236 44.4679L8.30109 44.0712H7.62263L7.463 43.5819H21.1386L20.9789 44.0712H20.2872L20.8459 44.4679L20.633 45.1291L21.1918 44.7191L21.7505 45.1291L21.5376 44.4679L22.0964 44.0712H21.4046L21.2849 43.5819H22.2294V46.6763H14.8063L14.6334 46.2002L15.1921 45.8035H14.5003L14.2875 45.1423L14.0746 45.8035H13.3829L13.9549 46.2002ZM10.3631 45.7639L10.1502 46.4251L10.7089 46.0151L11.2677 46.4251L11.0548 45.7639L11.6136 45.3671H10.9218L10.7089 44.7059L10.4961 45.3671H9.80434L10.3631 45.7639ZM14.62 46.6763H13.9815L14.3008 46.4515L14.62 46.6763Z" fill="#e57200"/>
</svg>
